<svg width="1440" height="100" viewBox="0 0 1440 100" fill="none" xmlns="http://www.w3.org/2000/svg">
<path d="M211.386 56.931C211.518 56.931 211.635 56.982 211.737 57.084L212.691 58.119C212.163 58.773 211.512 59.274 210.738 59.622C209.97 59.97 209.046 60.144 207.966 60.144C207 60.144 206.13 59.979 205.356 59.649C204.588 59.319 203.931 58.86 203.385 58.272C202.839 57.684 202.419 56.982 202.125 56.166C201.837 55.35 201.693 54.459 201.693 53.493C201.693 52.515 201.849 51.621 202.161 50.811C202.473 49.995 202.911 49.293 203.475 48.705C204.045 48.117 204.723 47.661 205.509 47.337C206.295 47.007 207.165 46.842 208.119 46.842C209.067 46.842 209.907 46.998 210.639 47.31C211.377 47.622 212.004 48.03 212.52 48.534L211.71 49.659C211.662 49.731 211.599 49.794 211.521 49.848C211.449 49.902 211.347 49.929 211.215 49.929C211.125 49.929 211.032 49.905 210.936 49.857C210.84 49.803 210.735 49.74 210.621 49.668C210.507 49.59 210.375 49.506 210.225 49.416C210.075 49.326 209.901 49.245 209.703 49.173C209.505 49.095 209.274 49.032 209.01 48.984C208.752 48.93 208.452 48.903 208.11 48.903C207.528 48.903 206.994 49.008 206.508 49.218C206.028 49.422 205.614 49.722 205.266 50.118C204.918 50.508 204.648 50.988 204.456 51.558C204.264 52.122 204.168 52.767 204.168 53.493C204.168 54.225 204.27 54.876 204.474 55.446C204.684 56.016 204.966 56.496 205.32 56.886C205.674 57.276 206.091 57.576 206.571 57.786C207.051 57.99 207.567 58.092 208.119 58.092C208.449 58.092 208.746 58.074 209.01 58.038C209.28 58.002 209.526 57.945 209.748 57.867C209.976 57.789 210.189 57.69 210.387 57.57C210.591 57.444 210.792 57.291 210.99 57.111C211.05 57.057 211.113 57.015 211.179 56.985C211.245 56.949 211.314 56.931 211.386 56.931ZM221.972 58.002V60H214.349V46.986H216.77V58.002H221.972ZM235.655 53.493C235.655 54.447 235.496 55.332 235.178 56.148C234.866 56.958 234.422 57.66 233.846 58.254C233.27 58.848 232.577 59.313 231.767 59.649C230.957 59.979 230.057 60.144 229.067 60.144C228.083 60.144 227.186 59.979 226.376 59.649C225.566 59.313 224.87 58.848 224.288 58.254C223.712 57.66 223.265 56.958 222.947 56.148C222.629 55.332 222.47 54.447 222.47 53.493C222.47 52.539 222.629 51.657 222.947 50.847C223.265 50.031 223.712 49.326 224.288 48.732C224.87 48.138 225.566 47.676 226.376 47.346C227.186 47.01 228.083 46.842 229.067 46.842C229.727 46.842 230.348 46.92 230.93 47.076C231.512 47.226 232.046 47.442 232.532 47.724C233.018 48 233.453 48.339 233.837 48.741C234.227 49.137 234.557 49.581 234.827 50.073C235.097 50.565 235.301 51.099 235.439 51.675C235.583 52.251 235.655 52.857 235.655 53.493ZM233.18 53.493C233.18 52.779 233.084 52.14 232.892 51.576C232.7 51.006 232.427 50.523 232.073 50.127C231.719 49.731 231.287 49.428 230.777 49.218C230.273 49.008 229.703 48.903 229.067 48.903C228.431 48.903 227.858 49.008 227.348 49.218C226.844 49.428 226.412 49.731 226.052 50.127C225.698 50.523 225.425 51.006 225.233 51.576C225.041 52.14 224.945 52.779 224.945 53.493C224.945 54.207 225.041 54.849 225.233 55.419C225.425 55.983 225.698 56.463 226.052 56.859C226.412 57.249 226.844 57.549 227.348 57.759C227.858 57.969 228.431 58.074 229.067 58.074C229.703 58.074 230.273 57.969 230.777 57.759C231.287 57.549 231.719 57.249 232.073 56.859C232.427 56.463 232.7 55.983 232.892 55.419C233.084 54.849 233.18 54.207 233.18 53.493ZM243.019 58.047C243.487 58.047 243.904 57.969 244.27 57.813C244.642 57.657 244.954 57.438 245.206 57.156C245.458 56.874 245.65 56.532 245.782 56.13C245.92 55.728 245.989 55.278 245.989 54.78V46.986H248.41V54.78C248.41 55.554 248.284 56.271 248.032 56.931C247.786 57.585 247.429 58.152 246.961 58.632C246.499 59.106 245.935 59.478 245.269 59.748C244.603 60.012 243.853 60.144 243.019 60.144C242.179 60.144 241.426 60.012 240.76 59.748C240.094 59.478 239.527 59.106 239.059 58.632C238.597 58.152 238.24 57.585 237.988 56.931C237.742 56.271 237.619 55.554 237.619 54.78V46.986H240.04V54.771C240.04 55.269 240.106 55.719 240.238 56.121C240.376 56.523 240.571 56.868 240.823 57.156C241.081 57.438 241.393 57.657 241.759 57.813C242.131 57.969 242.551 58.047 243.019 58.047ZM262.696 53.493C262.696 54.447 262.537 55.323 262.219 56.121C261.901 56.919 261.454 57.606 260.878 58.182C260.302 58.758 259.609 59.205 258.799 59.523C257.989 59.841 257.089 60 256.099 60H251.14V46.986H256.099C257.089 46.986 257.989 47.148 258.799 47.472C259.609 47.79 260.302 48.237 260.878 48.813C261.454 49.383 261.901 50.067 262.219 50.865C262.537 51.663 262.696 52.539 262.696 53.493ZM260.212 53.493C260.212 52.779 260.116 52.14 259.924 51.576C259.738 51.006 259.465 50.526 259.105 50.136C258.751 49.74 258.319 49.437 257.809 49.227C257.305 49.017 256.735 48.912 256.099 48.912H253.57V58.074H256.099C256.735 58.074 257.305 57.969 257.809 57.759C258.319 57.549 258.751 57.249 259.105 56.859C259.465 56.463 259.738 55.983 259.924 55.419C260.116 54.849 260.212 54.207 260.212 53.493ZM269.703 58.11C270.153 58.11 270.531 58.056 270.837 57.948C271.143 57.84 271.386 57.696 271.566 57.516C271.752 57.336 271.884 57.126 271.962 56.886C272.046 56.646 272.088 56.391 272.088 56.121C272.088 55.839 272.043 55.587 271.953 55.365C271.863 55.137 271.722 54.945 271.53 54.789C271.338 54.627 271.089 54.504 270.783 54.42C270.483 54.336 270.12 54.294 269.694 54.294H267.255V58.11H269.703ZM267.255 48.858V52.62H269.181C270.009 52.62 270.633 52.47 271.053 52.17C271.479 51.87 271.692 51.393 271.692 50.739C271.692 50.061 271.5 49.578 271.116 49.29C270.732 49.002 270.132 48.858 269.316 48.858H267.255ZM269.316 46.986C270.168 46.986 270.897 47.067 271.503 47.229C272.109 47.391 272.604 47.622 272.988 47.922C273.378 48.222 273.663 48.585 273.843 49.011C274.023 49.437 274.113 49.917 274.113 50.451C274.113 50.757 274.068 51.051 273.978 51.333C273.888 51.609 273.747 51.87 273.555 52.116C273.369 52.356 273.129 52.575 272.835 52.773C272.547 52.971 272.202 53.139 271.8 53.277C273.588 53.679 274.482 54.645 274.482 56.175C274.482 56.727 274.377 57.237 274.167 57.705C273.957 58.173 273.651 58.578 273.249 58.92C272.847 59.256 272.352 59.52 271.764 59.712C271.176 59.904 270.504 60 269.748 60H264.834V46.986H269.316ZM281.919 58.047C282.387 58.047 282.804 57.969 283.17 57.813C283.542 57.657 283.854 57.438 284.106 57.156C284.358 56.874 284.55 56.532 284.682 56.13C284.82 55.728 284.889 55.278 284.889 54.78V46.986H287.31V54.78C287.31 55.554 287.184 56.271 286.932 56.931C286.686 57.585 286.329 58.152 285.861 58.632C285.399 59.106 284.835 59.478 284.169 59.748C283.503 60.012 282.753 60.144 281.919 60.144C281.079 60.144 280.326 60.012 279.66 59.748C278.994 59.478 278.427 59.106 277.959 58.632C277.497 58.152 277.14 57.585 276.888 56.931C276.642 56.271 276.519 55.554 276.519 54.78V46.986H278.94V54.771C278.94 55.269 279.006 55.719 279.138 56.121C279.276 56.523 279.471 56.868 279.723 57.156C279.981 57.438 280.293 57.657 280.659 57.813C281.031 57.969 281.451 58.047 281.919 58.047ZM301.597 53.493C301.597 54.447 301.438 55.323 301.12 56.121C300.802 56.919 300.355 57.606 299.779 58.182C299.203 58.758 298.51 59.205 297.7 59.523C296.89 59.841 295.99 60 295 60H290.041V46.986H295C295.99 46.986 296.89 47.148 297.7 47.472C298.51 47.79 299.203 48.237 299.779 48.813C300.355 49.383 300.802 50.067 301.12 50.865C301.438 51.663 301.597 52.539 301.597 53.493ZM299.113 53.493C299.113 52.779 299.017 52.14 298.825 51.576C298.639 51.006 298.366 50.526 298.006 50.136C297.652 49.74 297.22 49.437 296.71 49.227C296.206 49.017 295.636 48.912 295 48.912H292.471V58.074H295C295.636 58.074 296.206 57.969 296.71 57.759C297.22 57.549 297.652 57.249 298.006 56.859C298.366 56.463 298.639 55.983 298.825 55.419C299.017 54.849 299.113 54.207 299.113 53.493ZM314.462 53.475V58.74C313.802 59.226 313.097 59.583 312.347 59.811C311.603 60.033 310.805 60.144 309.953 60.144C308.891 60.144 307.928 59.979 307.064 59.649C306.206 59.319 305.471 58.86 304.859 58.272C304.253 57.684 303.785 56.982 303.455 56.166C303.125 55.35 302.96 54.459 302.96 53.493C302.96 52.515 303.119 51.618 303.437 50.802C303.755 49.986 304.205 49.284 304.787 48.696C305.375 48.108 306.086 47.652 306.92 47.328C307.754 47.004 308.69 46.842 309.728 46.842C310.256 46.842 310.748 46.884 311.204 46.968C311.666 47.052 312.092 47.169 312.482 47.319C312.878 47.463 313.238 47.64 313.562 47.85C313.886 48.06 314.183 48.291 314.453 48.543L313.76 49.641C313.652 49.815 313.511 49.923 313.337 49.965C313.163 50.001 312.974 49.956 312.77 49.83C312.572 49.716 312.374 49.602 312.176 49.488C311.978 49.374 311.756 49.275 311.51 49.191C311.27 49.107 310.997 49.038 310.691 48.984C310.391 48.93 310.043 48.903 309.647 48.903C309.005 48.903 308.423 49.011 307.901 49.227C307.385 49.443 306.944 49.752 306.578 50.154C306.212 50.556 305.93 51.039 305.732 51.603C305.534 52.167 305.435 52.797 305.435 53.493C305.435 54.237 305.54 54.903 305.75 55.491C305.966 56.073 306.266 56.568 306.65 56.976C307.04 57.378 307.508 57.687 308.054 57.903C308.6 58.113 309.209 58.218 309.881 58.218C310.361 58.218 310.79 58.167 311.168 58.065C311.546 57.963 311.915 57.825 312.275 57.651V55.293H310.637C310.481 55.293 310.358 55.251 310.268 55.167C310.184 55.077 310.142 54.969 310.142 54.843V53.475H314.462ZM319.225 48.912V52.521H323.779V54.384H319.225V58.065H325.003V60H316.795V46.986H325.003V48.912H319.225ZM336.238 48.975H332.314V60H329.893V48.975H325.969V46.986H336.238V48.975Z" fill="white"/>
<path d="M186.605 51.05C186.605 50.615 186.75 50.18 186.75 49.6C186.75 46.41 184.14 43.8 180.95 43.8C178.63 43.8 176.745 45.105 175.73 46.99C175.44 46.845 174.86 46.7 174.425 46.7C172.395 46.7 170.8 48.295 170.8 50.325C170.8 50.615 170.8 50.905 170.945 51.05C168.335 51.485 166.45 53.515 166.45 56.125C166.45 58.88 168.77 61.2 171.525 61.2H186.025C188.78 61.2 191.1 58.88 191.1 56.125C191.1 53.515 189.215 51.34 186.605 51.05Z" fill="white"/>
<path d="M508.78 51.939C508.78 52.681 508.656 53.3693 508.409 54.004C508.166 54.634 507.821 55.18 507.373 55.642C506.925 56.104 506.386 56.4657 505.756 56.727C505.126 56.9837 504.426 57.112 503.656 57.112C502.891 57.112 502.193 56.9837 501.563 56.727C500.933 56.4657 500.392 56.104 499.939 55.642C499.491 55.18 499.143 54.634 498.896 54.004C498.649 53.3693 498.525 52.681 498.525 51.939C498.525 51.197 498.649 50.511 498.896 49.881C499.143 49.2463 499.491 48.698 499.939 48.236C500.392 47.774 500.933 47.4147 501.563 47.158C502.193 46.8967 502.891 46.766 503.656 46.766C504.169 46.766 504.652 46.8267 505.105 46.948C505.558 47.0647 505.973 47.2327 506.351 47.452C506.729 47.6667 507.067 47.9303 507.366 48.243C507.669 48.551 507.926 48.8963 508.136 49.279C508.346 49.6617 508.505 50.077 508.612 50.525C508.724 50.973 508.78 51.4443 508.78 51.939ZM506.855 51.939C506.855 51.3837 506.78 50.8867 506.631 50.448C506.482 50.0047 506.269 49.629 505.994 49.321C505.719 49.013 505.383 48.7773 504.986 48.614C504.594 48.4507 504.151 48.369 503.656 48.369C503.161 48.369 502.716 48.4507 502.319 48.614C501.927 48.7773 501.591 49.013 501.311 49.321C501.036 49.629 500.823 50.0047 500.674 50.448C500.525 50.8867 500.45 51.3837 500.45 51.939C500.45 52.4943 500.525 52.9937 500.674 53.437C500.823 53.8757 501.036 54.249 501.311 54.557C501.591 54.8603 501.927 55.0937 502.319 55.257C502.716 55.4203 503.161 55.502 503.656 55.502C504.151 55.502 504.594 55.4203 504.986 55.257C505.383 55.0937 505.719 54.8603 505.994 54.557C506.269 54.249 506.482 53.8757 506.631 53.437C506.78 52.9937 506.855 52.4943 506.855 51.939ZM518.779 46.878L514.691 57H512.99L508.902 46.878H510.414C510.577 46.878 510.71 46.9177 510.813 46.997C510.915 47.0763 510.992 47.179 511.044 47.305L513.431 53.479C513.51 53.6797 513.585 53.9013 513.655 54.144C513.729 54.382 513.799 54.6317 513.865 54.893C513.921 54.6317 513.981 54.382 514.047 54.144C514.112 53.9013 514.184 53.6797 514.264 53.479L516.637 47.305C516.674 47.1977 516.746 47.0997 516.854 47.011C516.966 46.9223 517.101 46.878 517.26 46.878H518.779ZM521.716 48.376V51.183H525.258V52.632H521.716V55.495H526.21V57H519.826V46.878H526.21V48.376H521.716ZM530.938 51.694C531.293 51.694 531.601 51.6497 531.862 51.561C532.128 51.4723 532.345 51.351 532.513 51.197C532.686 51.0383 532.814 50.8517 532.898 50.637C532.982 50.4223 533.024 50.1867 533.024 49.93C533.024 49.4167 532.854 49.0223 532.513 48.747C532.177 48.4717 531.661 48.334 530.966 48.334H529.762V51.694H530.938ZM535.782 57H534.081C533.759 57 533.526 56.874 533.381 56.622L531.253 53.381C531.174 53.2597 531.085 53.1733 530.987 53.122C530.894 53.0707 530.754 53.045 530.567 53.045H529.762V57H527.879V46.878H530.966C531.652 46.878 532.24 46.9503 532.73 47.095C533.225 47.235 533.628 47.4333 533.941 47.69C534.258 47.9467 534.492 48.2547 534.641 48.614C534.79 48.9687 534.865 49.3607 534.865 49.79C534.865 50.1307 534.814 50.4527 534.711 50.756C534.613 51.0593 534.468 51.3347 534.277 51.582C534.09 51.8293 533.857 52.0463 533.577 52.233C533.302 52.4197 532.987 52.5667 532.632 52.674C532.753 52.744 532.865 52.828 532.968 52.926C533.071 53.0193 533.164 53.1313 533.248 53.262L535.782 57ZM545.234 46.878L541.146 57H539.445L535.357 46.878H536.869C537.032 46.878 537.165 46.9177 537.268 46.997C537.37 47.0763 537.447 47.179 537.499 47.305L539.886 53.479C539.965 53.6797 540.04 53.9013 540.11 54.144C540.184 54.382 540.254 54.6317 540.32 54.893C540.376 54.6317 540.436 54.382 540.502 54.144C540.567 53.9013 540.639 53.6797 540.719 53.479L543.092 47.305C543.129 47.1977 543.201 47.0997 543.309 47.011C543.421 46.9223 543.556 46.878 543.715 46.878H545.234ZM548.171 57H546.281V46.878H548.171V57ZM552.328 48.376V51.183H555.87V52.632H552.328V55.495H556.822V57H550.438V46.878H556.822V48.376H552.328ZM571.958 46.878L568.815 57H567.114L564.902 50.084C564.842 49.916 564.786 49.7107 564.734 49.468C564.706 49.5847 564.678 49.6943 564.65 49.797C564.622 49.8997 564.592 49.9953 564.559 50.084L562.326 57H560.618L557.482 46.878H559.057C559.221 46.878 559.356 46.9177 559.463 46.997C559.575 47.0717 559.65 47.1743 559.687 47.305L561.409 53.36C561.447 53.5093 561.482 53.6727 561.514 53.85C561.552 54.0227 561.589 54.2047 561.626 54.396C561.664 54.2 561.703 54.0157 561.745 53.843C561.792 53.6703 561.841 53.5093 561.892 53.36L563.88 47.305C563.918 47.1977 563.99 47.0997 564.097 47.011C564.209 46.9223 564.345 46.878 564.503 46.878H565.056C565.22 46.878 565.353 46.9177 565.455 46.997C565.558 47.0763 565.635 47.179 565.686 47.305L567.667 53.36C567.765 53.6493 567.854 53.983 567.933 54.361C567.994 53.9923 568.062 53.6587 568.136 53.36L569.858 47.305C569.886 47.1883 569.956 47.088 570.068 47.004C570.185 46.92 570.323 46.878 570.481 46.878H571.958ZM596.205 48.075V51.582H600.328V52.688H596.205V57H594.847V46.969H601.028V48.075H596.205ZM608.951 55.894L608.944 57H602.763V46.969H608.944V48.075H604.121V51.407H608.027V52.471H604.121V55.894H608.951ZM616.171 53.276L614.596 49.195C614.549 49.0737 614.5 48.9337 614.449 48.775C614.397 48.6117 614.348 48.439 614.302 48.257C614.204 48.635 614.103 48.95 614.001 49.202L612.426 53.276H616.171ZM618.999 57H617.949C617.827 57 617.729 56.9697 617.655 56.909C617.58 56.8483 617.524 56.7713 617.487 56.678L616.549 54.256H612.048L611.11 56.678C611.082 56.762 611.028 56.8367 610.949 56.902C610.869 56.9673 610.771 57 610.655 57H609.605L613.616 46.969H614.988L618.999 57ZM626.117 48.11H622.869V57H621.518V48.11H618.263V46.969H626.117V48.11ZM631.476 55.922C631.892 55.922 632.263 55.852 632.589 55.712C632.916 55.572 633.191 55.376 633.415 55.124C633.644 54.872 633.817 54.571 633.933 54.221C634.055 53.871 634.115 53.486 634.115 53.066V46.969H635.466V53.066C635.466 53.6447 635.373 54.1813 635.186 54.676C635.004 55.1707 634.741 55.6 634.395 55.964C634.055 56.3233 633.637 56.6057 633.142 56.811C632.648 57.0163 632.092 57.119 631.476 57.119C630.86 57.119 630.305 57.0163 629.81 56.811C629.316 56.6057 628.896 56.3233 628.55 55.964C628.205 55.6 627.939 55.1707 627.752 54.676C627.57 54.1813 627.479 53.6447 627.479 53.066V46.969H628.83V53.059C628.83 53.479 628.889 53.864 629.005 54.214C629.127 54.564 629.299 54.865 629.523 55.117C629.752 55.369 630.03 55.5673 630.356 55.712C630.688 55.852 631.061 55.922 631.476 55.922ZM640.679 51.827C641.071 51.827 641.416 51.7803 641.715 51.687C642.018 51.589 642.27 51.4537 642.471 51.281C642.676 51.1037 642.83 50.8937 642.933 50.651C643.036 50.4083 643.087 50.14 643.087 49.846C643.087 49.2487 642.891 48.7983 642.499 48.495C642.107 48.1917 641.519 48.04 640.735 48.04H639.251V51.827H640.679ZM645.313 57H644.109C643.862 57 643.68 56.9043 643.563 56.713L640.959 53.129C640.88 53.017 640.793 52.9377 640.7 52.891C640.611 52.8397 640.471 52.814 640.28 52.814H639.251V57H637.9V46.969H640.735C641.37 46.969 641.918 47.0343 642.38 47.165C642.842 47.291 643.222 47.4753 643.521 47.718C643.824 47.9607 644.048 48.2547 644.193 48.6C644.338 48.9407 644.41 49.3233 644.41 49.748C644.41 50.1027 644.354 50.434 644.242 50.742C644.13 51.05 643.967 51.3277 643.752 51.575C643.542 51.8177 643.283 52.0253 642.975 52.198C642.672 52.3707 642.326 52.5013 641.939 52.59C642.112 52.688 642.261 52.8303 642.387 53.017L645.313 57ZM652.865 55.894L652.858 57H646.677V46.969H652.858V48.075H648.035V51.407H651.941V52.471H648.035V55.894H652.865ZM659.889 48.537C659.847 48.607 659.8 48.6607 659.749 48.698C659.702 48.7307 659.644 48.747 659.574 48.747C659.494 48.747 659.401 48.7073 659.294 48.628C659.186 48.5487 659.051 48.4623 658.888 48.369C658.729 48.271 658.535 48.1823 658.307 48.103C658.083 48.0237 657.81 47.984 657.488 47.984C657.184 47.984 656.916 48.026 656.683 48.11C656.454 48.1893 656.26 48.299 656.102 48.439C655.948 48.579 655.831 48.7447 655.752 48.936C655.672 49.1227 655.633 49.3257 655.633 49.545C655.633 49.825 655.7 50.0583 655.836 50.245C655.976 50.427 656.158 50.5833 656.382 50.714C656.61 50.8447 656.867 50.959 657.152 51.057C657.441 51.1503 657.735 51.2483 658.034 51.351C658.337 51.4537 658.631 51.5703 658.916 51.701C659.205 51.827 659.462 51.988 659.686 52.184C659.914 52.38 660.096 52.6203 660.232 52.905C660.372 53.1897 660.442 53.5397 660.442 53.955C660.442 54.3937 660.367 54.8067 660.218 55.194C660.068 55.5767 659.849 55.9103 659.56 56.195C659.275 56.4797 658.923 56.7037 658.503 56.867C658.087 57.0303 657.614 57.112 657.082 57.112C656.428 57.112 655.836 56.9953 655.304 56.762C654.772 56.524 654.317 56.2043 653.939 55.803L654.331 55.159C654.368 55.1077 654.412 55.0657 654.464 55.033C654.52 54.9957 654.58 54.977 654.646 54.977C654.706 54.977 654.774 55.0027 654.849 55.054C654.928 55.1007 655.017 55.1613 655.115 55.236C655.213 55.3107 655.325 55.3923 655.451 55.481C655.577 55.5697 655.719 55.6513 655.878 55.726C656.041 55.8007 656.225 55.8637 656.431 55.915C656.636 55.9617 656.867 55.985 657.124 55.985C657.446 55.985 657.733 55.9407 657.985 55.852C658.237 55.7633 658.449 55.6397 658.622 55.481C658.799 55.3177 658.934 55.124 659.028 54.9C659.121 54.676 659.168 54.4263 659.168 54.151C659.168 53.8477 659.098 53.6003 658.958 53.409C658.822 53.213 658.643 53.0497 658.419 52.919C658.195 52.7883 657.938 52.6787 657.649 52.59C657.359 52.4967 657.065 52.4033 656.767 52.31C656.468 52.212 656.174 52.1 655.885 51.974C655.595 51.848 655.339 51.6847 655.115 51.484C654.891 51.2833 654.709 51.0337 654.569 50.735C654.433 50.4317 654.366 50.0583 654.366 49.615C654.366 49.2603 654.433 48.9173 654.569 48.586C654.709 48.2547 654.909 47.9607 655.171 47.704C655.437 47.4473 655.761 47.242 656.144 47.088C656.531 46.934 656.974 46.857 657.474 46.857C658.034 46.857 658.542 46.9457 659 47.123C659.462 47.3003 659.868 47.557 660.218 47.893L659.889 48.537ZM690.21 48.11H686.962V57H685.611V48.11H682.356V46.969H690.21V48.11ZM697.887 55.894L697.88 57H691.699V46.969H697.88V48.075H693.057V51.407H696.963V52.471H693.057V55.894H697.887ZM706.602 54.928C706.677 54.928 706.742 54.9583 706.798 55.019L707.337 55.6C706.927 56.076 706.427 56.447 705.839 56.713C705.256 56.979 704.549 57.112 703.718 57.112C703 57.112 702.346 56.9883 701.758 56.741C701.17 56.489 700.669 56.139 700.253 55.691C699.838 55.2383 699.516 54.697 699.287 54.067C699.059 53.437 698.944 52.744 698.944 51.988C698.944 51.232 699.063 50.539 699.301 49.909C699.539 49.279 699.873 48.7377 700.302 48.285C700.736 47.8323 701.254 47.4823 701.856 47.235C702.458 46.983 703.123 46.857 703.851 46.857C704.565 46.857 705.195 46.9713 705.741 47.2C706.287 47.4287 706.768 47.739 707.183 48.131L706.735 48.754C706.707 48.8007 706.67 48.8403 706.623 48.873C706.581 48.901 706.523 48.915 706.448 48.915C706.364 48.915 706.262 48.8707 706.14 48.782C706.019 48.6887 705.86 48.586 705.664 48.474C705.468 48.362 705.223 48.2617 704.929 48.173C704.635 48.0797 704.274 48.033 703.844 48.033C703.326 48.033 702.853 48.124 702.423 48.306C701.994 48.4833 701.623 48.7423 701.31 49.083C701.002 49.4237 700.762 49.839 700.589 50.329C700.417 50.819 700.33 51.372 700.33 51.988C700.33 52.6133 700.419 53.171 700.596 53.661C700.778 54.151 701.023 54.5663 701.331 54.907C701.644 55.243 702.01 55.4997 702.43 55.677C702.855 55.8543 703.312 55.943 703.802 55.943C704.101 55.943 704.369 55.9267 704.607 55.894C704.85 55.8567 705.072 55.8007 705.272 55.726C705.478 55.6513 705.667 55.558 705.839 55.446C706.017 55.3293 706.192 55.1917 706.364 55.033C706.444 54.963 706.523 54.928 706.602 54.928ZM717.039 46.969V57H715.681V52.436H710.27V57H708.912V46.969H710.27V51.442H715.681V46.969H717.039ZM727.73 46.969V57H727.051C726.944 57 726.853 56.9813 726.778 56.944C726.708 56.9067 726.638 56.8437 726.568 56.755L720.765 49.195C720.775 49.3117 720.782 49.426 720.786 49.538C720.791 49.65 720.793 49.755 720.793 49.853V57H719.603V46.969H720.303C720.364 46.969 720.415 46.9737 720.457 46.983C720.499 46.9877 720.537 46.9993 720.569 47.018C720.602 47.032 720.635 47.0553 720.667 47.088C720.7 47.116 720.735 47.1533 720.772 47.2L726.575 54.753C726.566 54.6317 726.557 54.515 726.547 54.403C726.543 54.2863 726.54 54.1767 726.54 54.074V46.969H727.73ZM739.563 51.988C739.563 52.7393 739.444 53.43 739.206 54.06C738.968 54.6853 738.632 55.2243 738.198 55.677C737.764 56.1297 737.241 56.482 736.63 56.734C736.023 56.9813 735.351 57.105 734.614 57.105C733.876 57.105 733.204 56.9813 732.598 56.734C731.991 56.482 731.471 56.1297 731.037 55.677C730.603 55.2243 730.267 54.6853 730.029 54.06C729.791 53.43 729.672 52.7393 729.672 51.988C729.672 51.2367 729.791 50.5483 730.029 49.923C730.267 49.293 730.603 48.7517 731.037 48.299C731.471 47.8417 731.991 47.487 732.598 47.235C733.204 46.983 733.876 46.857 734.614 46.857C735.351 46.857 736.023 46.983 736.63 47.235C737.241 47.487 737.764 47.8417 738.198 48.299C738.632 48.7517 738.968 49.293 739.206 49.923C739.444 50.5483 739.563 51.2367 739.563 51.988ZM738.17 51.988C738.17 51.372 738.086 50.819 737.918 50.329C737.75 49.839 737.512 49.426 737.204 49.09C736.896 48.7493 736.522 48.488 736.084 48.306C735.645 48.124 735.155 48.033 734.614 48.033C734.077 48.033 733.589 48.124 733.151 48.306C732.712 48.488 732.336 48.7493 732.024 49.09C731.716 49.426 731.478 49.839 731.31 50.329C731.142 50.819 731.058 51.372 731.058 51.988C731.058 52.604 731.142 53.157 731.31 53.647C731.478 54.1323 731.716 54.5453 732.024 54.886C732.336 55.222 732.712 55.481 733.151 55.663C733.589 55.8403 734.077 55.929 734.614 55.929C735.155 55.929 735.645 55.8403 736.084 55.663C736.522 55.481 736.896 55.222 737.204 54.886C737.512 54.5453 737.75 54.1323 737.918 53.647C738.086 53.157 738.17 52.604 738.17 51.988ZM747.197 55.859V57H741.506V46.969H742.857V55.859H747.197ZM757.5 51.988C757.5 52.7393 757.381 53.43 757.143 54.06C756.905 54.6853 756.569 55.2243 756.135 55.677C755.701 56.1297 755.179 56.482 754.567 56.734C753.961 56.9813 753.289 57.105 752.551 57.105C751.814 57.105 751.142 56.9813 750.535 56.734C749.929 56.482 749.408 56.1297 748.974 55.677C748.54 55.2243 748.204 54.6853 747.966 54.06C747.728 53.43 747.609 52.7393 747.609 51.988C747.609 51.2367 747.728 50.5483 747.966 49.923C748.204 49.293 748.54 48.7517 748.974 48.299C749.408 47.8417 749.929 47.487 750.535 47.235C751.142 46.983 751.814 46.857 752.551 46.857C753.289 46.857 753.961 46.983 754.567 47.235C755.179 47.487 755.701 47.8417 756.135 48.299C756.569 48.7517 756.905 49.293 757.143 49.923C757.381 50.5483 757.5 51.2367 757.5 51.988ZM756.107 51.988C756.107 51.372 756.023 50.819 755.855 50.329C755.687 49.839 755.449 49.426 755.141 49.09C754.833 48.7493 754.46 48.488 754.021 48.306C753.583 48.124 753.093 48.033 752.551 48.033C752.015 48.033 751.527 48.124 751.088 48.306C750.65 48.488 750.274 48.7493 749.961 49.09C749.653 49.426 749.415 49.839 749.247 50.329C749.079 50.819 748.995 51.372 748.995 51.988C748.995 52.604 749.079 53.157 749.247 53.647C749.415 54.1323 749.653 54.5453 749.961 54.886C750.274 55.222 750.65 55.481 751.088 55.663C751.527 55.8403 752.015 55.929 752.551 55.929C753.093 55.929 753.583 55.8403 754.021 55.663C754.46 55.481 754.833 55.222 755.141 54.886C755.449 54.5453 755.687 54.1323 755.855 53.647C756.023 53.157 756.107 52.604 756.107 51.988ZM767.591 52.177V56.027C767.087 56.391 766.548 56.664 765.974 56.846C765.405 57.0233 764.779 57.112 764.098 57.112C763.291 57.112 762.563 56.9883 761.914 56.741C761.265 56.489 760.71 56.139 760.248 55.691C759.791 55.2383 759.438 54.697 759.191 54.067C758.944 53.437 758.82 52.744 758.82 51.988C758.82 51.2227 758.939 50.525 759.177 49.895C759.42 49.265 759.763 48.726 760.206 48.278C760.649 47.8253 761.188 47.4753 761.823 47.228C762.458 46.9807 763.167 46.857 763.951 46.857C764.348 46.857 764.716 46.8873 765.057 46.948C765.398 47.004 765.713 47.088 766.002 47.2C766.291 47.3073 766.56 47.4403 766.807 47.599C767.054 47.753 767.285 47.928 767.5 48.124L767.115 48.74C767.054 48.8333 766.975 48.894 766.877 48.922C766.784 48.9453 766.679 48.922 766.562 48.852C766.45 48.7867 766.322 48.7073 766.177 48.614C766.032 48.5207 765.855 48.432 765.645 48.348C765.44 48.2593 765.195 48.1847 764.91 48.124C764.63 48.0633 764.296 48.033 763.909 48.033C763.344 48.033 762.833 48.1263 762.376 48.313C761.919 48.495 761.529 48.7587 761.207 49.104C760.885 49.4447 760.638 49.86 760.465 50.35C760.292 50.8353 760.206 51.3813 760.206 51.988C760.206 52.618 760.295 53.1827 760.472 53.682C760.654 54.1767 760.911 54.599 761.242 54.949C761.578 55.2943 761.984 55.558 762.46 55.74C762.936 55.922 763.47 56.013 764.063 56.013C764.53 56.013 764.943 55.9617 765.302 55.859C765.666 55.7517 766.021 55.6047 766.366 55.418V53.213H764.805C764.716 53.213 764.644 53.1873 764.588 53.136C764.537 53.0847 764.511 53.0217 764.511 52.947V52.177H767.591ZM773.203 53.003V57H771.845V53.003L768.17 46.969H769.36C769.482 46.969 769.577 46.9993 769.647 47.06C769.717 47.116 769.778 47.1907 769.829 47.284L772.125 51.183C772.209 51.3463 772.286 51.5003 772.356 51.645C772.426 51.785 772.487 51.9273 772.538 52.072C772.59 51.9273 772.648 51.785 772.713 51.645C772.779 51.5003 772.851 51.3463 772.93 51.183L775.219 47.284C775.261 47.2047 775.32 47.1323 775.394 47.067C775.469 47.0017 775.565 46.969 775.681 46.969H776.878L773.203 53.003ZM806.161 54.928C806.236 54.928 806.301 54.9583 806.357 55.019L806.896 55.6C806.485 56.076 805.986 56.447 805.398 56.713C804.815 56.979 804.108 57.112 803.277 57.112C802.558 57.112 801.905 56.9883 801.317 56.741C800.729 56.489 800.227 56.139 799.812 55.691C799.397 55.2383 799.075 54.697 798.846 54.067C798.617 53.437 798.503 52.744 798.503 51.988C798.503 51.232 798.622 50.539 798.86 49.909C799.098 49.279 799.432 48.7377 799.861 48.285C800.295 47.8323 800.813 47.4823 801.415 47.235C802.017 46.983 802.682 46.857 803.41 46.857C804.124 46.857 804.754 46.9713 805.3 47.2C805.846 47.4287 806.327 47.739 806.742 48.131L806.294 48.754C806.266 48.8007 806.229 48.8403 806.182 48.873C806.14 48.901 806.082 48.915 806.007 48.915C805.923 48.915 805.82 48.8707 805.699 48.782C805.578 48.6887 805.419 48.586 805.223 48.474C805.027 48.362 804.782 48.2617 804.488 48.173C804.194 48.0797 803.832 48.033 803.403 48.033C802.885 48.033 802.411 48.124 801.982 48.306C801.553 48.4833 801.182 48.7423 800.869 49.083C800.561 49.4237 800.321 49.839 800.148 50.329C799.975 50.819 799.889 51.372 799.889 51.988C799.889 52.6133 799.978 53.171 800.155 53.661C800.337 54.151 800.582 54.5663 800.89 54.907C801.203 55.243 801.569 55.4997 801.989 55.677C802.414 55.8543 802.871 55.943 803.361 55.943C803.66 55.943 803.928 55.9267 804.166 55.894C804.409 55.8567 804.63 55.8007 804.831 55.726C805.036 55.6513 805.225 55.558 805.398 55.446C805.575 55.3293 805.75 55.1917 805.923 55.033C806.002 54.963 806.082 54.928 806.161 54.928ZM817.547 51.988C817.547 52.7393 817.428 53.43 817.19 54.06C816.952 54.6853 816.616 55.2243 816.182 55.677C815.748 56.1297 815.225 56.482 814.614 56.734C814.007 56.9813 813.335 57.105 812.598 57.105C811.861 57.105 811.189 56.9813 810.582 56.734C809.975 56.482 809.455 56.1297 809.021 55.677C808.587 55.2243 808.251 54.6853 808.013 54.06C807.775 53.43 807.656 52.7393 807.656 51.988C807.656 51.2367 807.775 50.5483 808.013 49.923C808.251 49.293 808.587 48.7517 809.021 48.299C809.455 47.8417 809.975 47.487 810.582 47.235C811.189 46.983 811.861 46.857 812.598 46.857C813.335 46.857 814.007 46.983 814.614 47.235C815.225 47.487 815.748 47.8417 816.182 48.299C816.616 48.7517 816.952 49.293 817.19 49.923C817.428 50.5483 817.547 51.2367 817.547 51.988ZM816.154 51.988C816.154 51.372 816.07 50.819 815.902 50.329C815.734 49.839 815.496 49.426 815.188 49.09C814.88 48.7493 814.507 48.488 814.068 48.306C813.629 48.124 813.139 48.033 812.598 48.033C812.061 48.033 811.574 48.124 811.135 48.306C810.696 48.488 810.321 48.7493 810.008 49.09C809.7 49.426 809.462 49.839 809.294 50.329C809.126 50.819 809.042 51.372 809.042 51.988C809.042 52.604 809.126 53.157 809.294 53.647C809.462 54.1323 809.7 54.5453 810.008 54.886C810.321 55.222 810.696 55.481 811.135 55.663C811.574 55.8403 812.061 55.929 812.598 55.929C813.139 55.929 813.629 55.8403 814.068 55.663C814.507 55.481 814.88 55.222 815.188 54.886C815.496 54.5453 815.734 54.1323 815.902 53.647C816.07 53.157 816.154 52.604 816.154 51.988ZM827.617 46.969V57H826.938C826.831 57 826.74 56.9813 826.665 56.944C826.595 56.9067 826.525 56.8437 826.455 56.755L820.652 49.195C820.661 49.3117 820.668 49.426 820.673 49.538C820.678 49.65 820.68 49.755 820.68 49.853V57H819.49V46.969H820.19C820.251 46.969 820.302 46.9737 820.344 46.983C820.386 46.9877 820.423 46.9993 820.456 47.018C820.489 47.032 820.521 47.0553 820.554 47.088C820.587 47.116 820.622 47.1533 820.659 47.2L826.462 54.753C826.453 54.6317 826.443 54.515 826.434 54.403C826.429 54.2863 826.427 54.1767 826.427 54.074V46.969H827.617ZM836.964 48.11H833.716V57H832.365V48.11H829.11V46.969H836.964V48.11ZM842.796 53.276L841.221 49.195C841.174 49.0737 841.125 48.9337 841.074 48.775C841.022 48.6117 840.973 48.439 840.927 48.257C840.829 48.635 840.728 48.95 840.626 49.202L839.051 53.276H842.796ZM845.624 57H844.574C844.452 57 844.354 56.9697 844.28 56.909C844.205 56.8483 844.149 56.7713 844.112 56.678L843.174 54.256H838.673L837.735 56.678C837.707 56.762 837.653 56.8367 837.574 56.902C837.494 56.9673 837.396 57 837.28 57H836.23L840.241 46.969H841.613L845.624 57ZM853.725 54.928C853.8 54.928 853.865 54.9583 853.921 55.019L854.46 55.6C854.05 56.076 853.55 56.447 852.962 56.713C852.379 56.979 851.672 57.112 850.841 57.112C850.123 57.112 849.469 56.9883 848.881 56.741C848.293 56.489 847.792 56.139 847.376 55.691C846.961 55.2383 846.639 54.697 846.41 54.067C846.182 53.437 846.067 52.744 846.067 51.988C846.067 51.232 846.186 50.539 846.424 49.909C846.662 49.279 846.996 48.7377 847.425 48.285C847.859 47.8323 848.377 47.4823 848.979 47.235C849.581 46.983 850.246 46.857 850.974 46.857C851.688 46.857 852.318 46.9713 852.864 47.2C853.41 47.4287 853.891 47.739 854.306 48.131L853.858 48.754C853.83 48.8007 853.793 48.8403 853.746 48.873C853.704 48.901 853.646 48.915 853.571 48.915C853.487 48.915 853.385 48.8707 853.263 48.782C853.142 48.6887 852.983 48.586 852.787 48.474C852.591 48.362 852.346 48.2617 852.052 48.173C851.758 48.0797 851.397 48.033 850.967 48.033C850.449 48.033 849.976 48.124 849.546 48.306C849.117 48.4833 848.746 48.7423 848.433 49.083C848.125 49.4237 847.885 49.839 847.712 50.329C847.54 50.819 847.453 51.372 847.453 51.988C847.453 52.6133 847.542 53.171 847.719 53.661C847.901 54.151 848.146 54.5663 848.454 54.907C848.767 55.243 849.133 55.4997 849.553 55.677C849.978 55.8543 850.435 55.943 850.925 55.943C851.224 55.943 851.492 55.9267 851.73 55.894C851.973 55.8567 852.195 55.8007 852.395 55.726C852.601 55.6513 852.79 55.558 852.962 55.446C853.14 55.3293 853.315 55.1917 853.487 55.033C853.567 54.963 853.646 54.928 853.725 54.928ZM862.818 48.11H859.57V57H858.219V48.11H854.964V46.969H862.818V48.11ZM886.924 48.537C886.882 48.607 886.835 48.6607 886.784 48.698C886.737 48.7307 886.679 48.747 886.609 48.747C886.529 48.747 886.436 48.7073 886.329 48.628C886.221 48.5487 886.086 48.4623 885.923 48.369C885.764 48.271 885.57 48.1823 885.342 48.103C885.118 48.0237 884.845 47.984 884.523 47.984C884.219 47.984 883.951 48.026 883.718 48.11C883.489 48.1893 883.295 48.299 883.137 48.439C882.983 48.579 882.866 48.7447 882.787 48.936C882.707 49.1227 882.668 49.3257 882.668 49.545C882.668 49.825 882.735 50.0583 882.871 50.245C883.011 50.427 883.193 50.5833 883.417 50.714C883.645 50.8447 883.902 50.959 884.187 51.057C884.476 51.1503 884.77 51.2483 885.069 51.351C885.372 51.4537 885.666 51.5703 885.951 51.701C886.24 51.827 886.497 51.988 886.721 52.184C886.949 52.38 887.131 52.6203 887.267 52.905C887.407 53.1897 887.477 53.5397 887.477 53.955C887.477 54.3937 887.402 54.8067 887.253 55.194C887.103 55.5767 886.884 55.9103 886.595 56.195C886.31 56.4797 885.958 56.7037 885.538 56.867C885.122 57.0303 884.649 57.112 884.117 57.112C883.463 57.112 882.871 56.9953 882.339 56.762C881.807 56.524 881.352 56.2043 880.974 55.803L881.366 55.159C881.403 55.1077 881.447 55.0657 881.499 55.033C881.555 54.9957 881.615 54.977 881.681 54.977C881.741 54.977 881.809 55.0027 881.884 55.054C881.963 55.1007 882.052 55.1613 882.15 55.236C882.248 55.3107 882.36 55.3923 882.486 55.481C882.612 55.5697 882.754 55.6513 882.913 55.726C883.076 55.8007 883.26 55.8637 883.466 55.915C883.671 55.9617 883.902 55.985 884.159 55.985C884.481 55.985 884.768 55.9407 885.02 55.852C885.272 55.7633 885.484 55.6397 885.657 55.481C885.834 55.3177 885.969 55.124 886.063 54.9C886.156 54.676 886.203 54.4263 886.203 54.151C886.203 53.8477 886.133 53.6003 885.993 53.409C885.857 53.213 885.678 53.0497 885.454 52.919C885.23 52.7883 884.973 52.6787 884.684 52.59C884.394 52.4967 884.1 52.4033 883.802 52.31C883.503 52.212 883.209 52.1 882.92 51.974C882.63 51.848 882.374 51.6847 882.15 51.484C881.926 51.2833 881.744 51.0337 881.604 50.735C881.468 50.4317 881.401 50.0583 881.401 49.615C881.401 49.2603 881.468 48.9173 881.604 48.586C881.744 48.2547 881.944 47.9607 882.206 47.704C882.472 47.4473 882.796 47.242 883.179 47.088C883.566 46.934 884.009 46.857 884.509 46.857C885.069 46.857 885.577 46.9457 886.035 47.123C886.497 47.3003 886.903 47.557 887.253 47.893L886.924 48.537ZM890.752 57H889.394V46.969H890.752V57ZM901.466 52.177V56.027C900.962 56.391 900.423 56.664 899.849 56.846C899.28 57.0233 898.654 57.112 897.973 57.112C897.166 57.112 896.438 56.9883 895.789 56.741C895.14 56.489 894.585 56.139 894.123 55.691C893.666 55.2383 893.313 54.697 893.066 54.067C892.819 53.437 892.695 52.744 892.695 51.988C892.695 51.2227 892.814 50.525 893.052 49.895C893.295 49.265 893.638 48.726 894.081 48.278C894.524 47.8253 895.063 47.4753 895.698 47.228C896.333 46.9807 897.042 46.857 897.826 46.857C898.223 46.857 898.591 46.8873 898.932 46.948C899.273 47.004 899.588 47.088 899.877 47.2C900.166 47.3073 900.435 47.4403 900.682 47.599C900.929 47.753 901.16 47.928 901.375 48.124L900.99 48.74C900.929 48.8333 900.85 48.894 900.752 48.922C900.659 48.9453 900.554 48.922 900.437 48.852C900.325 48.7867 900.197 48.7073 900.052 48.614C899.907 48.5207 899.73 48.432 899.52 48.348C899.315 48.2593 899.07 48.1847 898.785 48.124C898.505 48.0633 898.171 48.033 897.784 48.033C897.219 48.033 896.708 48.1263 896.251 48.313C895.794 48.495 895.404 48.7587 895.082 49.104C894.76 49.4447 894.513 49.86 894.34 50.35C894.167 50.8353 894.081 51.3813 894.081 51.988C894.081 52.618 894.17 53.1827 894.347 53.682C894.529 54.1767 894.786 54.599 895.117 54.949C895.453 55.2943 895.859 55.558 896.335 55.74C896.811 55.922 897.345 56.013 897.938 56.013C898.405 56.013 898.818 55.9617 899.177 55.859C899.541 55.7517 899.896 55.6047 900.241 55.418V53.213H898.68C898.591 53.213 898.519 53.1873 898.463 53.136C898.412 53.0847 898.386 53.0217 898.386 52.947V52.177H901.466ZM911.672 46.969V57H910.993C910.885 57 910.794 56.9813 910.72 56.944C910.65 56.9067 910.58 56.8437 910.51 56.755L904.707 49.195C904.716 49.3117 904.723 49.426 904.728 49.538C904.732 49.65 904.735 49.755 904.735 49.853V57H903.545V46.969H904.245C904.305 46.969 904.357 46.9737 904.399 46.983C904.441 46.9877 904.478 46.9993 904.511 47.018C904.543 47.032 904.576 47.0553 904.609 47.088C904.641 47.116 904.676 47.1533 904.714 47.2L910.517 54.753C910.507 54.6317 910.498 54.515 910.489 54.403C910.484 54.2863 910.482 54.1767 910.482 54.074V46.969H911.672ZM921.689 55.922C922.104 55.922 922.475 55.852 922.802 55.712C923.129 55.572 923.404 55.376 923.628 55.124C923.857 54.872 924.029 54.571 924.146 54.221C924.267 53.871 924.328 53.486 924.328 53.066V46.969H925.679V53.066C925.679 53.6447 925.586 54.1813 925.399 54.676C925.217 55.1707 924.953 55.6 924.608 55.964C924.267 56.3233 923.85 56.6057 923.355 56.811C922.86 57.0163 922.305 57.119 921.689 57.119C921.073 57.119 920.518 57.0163 920.023 56.811C919.528 56.6057 919.108 56.3233 918.763 55.964C918.418 55.6 918.152 55.1707 917.965 54.676C917.783 54.1813 917.692 53.6447 917.692 53.066V46.969H919.043V53.059C919.043 53.479 919.101 53.864 919.218 54.214C919.339 54.564 919.512 54.865 919.736 55.117C919.965 55.369 920.242 55.5673 920.569 55.712C920.9 55.852 921.274 55.922 921.689 55.922ZM931.074 52.17C931.461 52.17 931.802 52.1187 932.096 52.016C932.395 51.9133 932.644 51.771 932.845 51.589C933.05 51.4023 933.204 51.1807 933.307 50.924C933.41 50.6673 933.461 50.385 933.461 50.077C933.461 49.4377 933.263 48.9383 932.866 48.579C932.474 48.2197 931.877 48.04 931.074 48.04H929.464V52.17H931.074ZM931.074 46.969C931.709 46.969 932.259 47.0437 932.726 47.193C933.197 47.3377 933.587 47.5453 933.895 47.816C934.203 48.0867 934.432 48.4133 934.581 48.796C934.735 49.1787 934.812 49.6057 934.812 50.077C934.812 50.5437 934.73 50.9707 934.567 51.358C934.404 51.7453 934.163 52.079 933.846 52.359C933.533 52.639 933.144 52.8583 932.677 53.017C932.215 53.171 931.681 53.248 931.074 53.248H929.464V57H928.113V46.969H931.074Z" fill="white"/>
<path d="M1106.47 56.894L1106.46 58H1100.28V47.969H1106.46V49.075H1101.64V52.407H1105.55V53.471H1101.64V56.894H1106.47ZM1116.49 47.969V58H1115.81C1115.7 58 1115.61 57.9813 1115.54 57.944C1115.47 57.9067 1115.4 57.8437 1115.33 57.755L1109.52 50.195C1109.53 50.3117 1109.54 50.426 1109.54 50.538C1109.55 50.65 1109.55 50.755 1109.55 50.853V58H1108.36V47.969H1109.06C1109.12 47.969 1109.17 47.9737 1109.22 47.983C1109.26 47.9877 1109.29 47.9993 1109.33 48.018C1109.36 48.032 1109.39 48.0553 1109.43 48.088C1109.46 48.116 1109.49 48.1533 1109.53 48.2L1115.33 55.753C1115.32 55.6317 1115.31 55.515 1115.31 55.403C1115.3 55.2863 1115.3 55.1767 1115.3 55.074V47.969H1116.49Z" fill="white"/>
<path d="M1080 40.3C1077.65 38.85 1074.95 38 1072 38V40.3H1080Z" fill="#ED4C5C"/>
<path d="M1072 42.6H1082.8C1081.95 41.75 1081 40.95 1080 40.3H1072V42.6Z" fill="white"/>
<path d="M1072 44.9H1084.65C1084.1 44.05 1083.5 43.3 1082.85 42.6H1072V44.9Z" fill="#ED4C5C"/>
<path d="M1072 47.2H1085.85C1085.5 46.4 1085.1 45.6 1084.65 44.9H1072V47.2Z" fill="white"/>
<path d="M1072 49.5H1086.6C1086.4 48.7 1086.15 47.95 1085.85 47.2H1072V49.5Z" fill="#ED4C5C"/>
<path d="M1072 51.85H1086.95C1086.9 51.05 1086.75 50.3 1086.6 49.55H1072V51.85Z" fill="white"/>
<path d="M1086.95 51.85H1072V53H1057C1057 53.4 1057 53.75 1057.05 54.15H1086.95C1087 53.75 1087 53.4 1087 53C1087 52.6 1087 52.2 1086.95 51.85Z" fill="#ED4C5C"/>
<path d="M1057.4 56.45H1086.6C1086.8 55.7 1086.9 54.95 1086.95 54.15H1057.05C1057.1 54.9 1057.2 55.7 1057.4 56.45Z" fill="white"/>
<path d="M1058.15 58.75H1085.85C1086.15 58 1086.4 57.25 1086.6 56.45H1057.4C1057.6 57.25 1057.85 58 1058.15 58.75Z" fill="#ED4C5C"/>
<path d="M1059.35 61.05H1084.65C1085.1 60.3 1085.5 59.55 1085.85 58.75H1058.15C1058.5 59.55 1058.9 60.3 1059.35 61.05Z" fill="white"/>
<path d="M1061.15 63.35H1082.85C1083.5 62.65 1084.15 61.85 1084.65 61.05H1059.35C1059.85 61.9 1060.5 62.65 1061.15 63.35Z" fill="#ED4C5C"/>
<path d="M1063.95 65.65H1080.05C1081.1 65 1082 64.2 1082.85 63.35H1061.15C1062 64.25 1062.95 65 1063.95 65.65Z" fill="white"/>
<path d="M1072 68C1074.95 68 1077.7 67.15 1080.05 65.65H1063.95C1066.3 67.15 1069.05 68 1072 68Z" fill="#ED4C5C"/>
<path d="M1064 40.3C1062.95 40.95 1062 41.75 1061.15 42.6C1060.45 43.3 1059.85 44.1 1059.35 44.9C1058.9 45.65 1058.45 46.4 1058.15 47.2C1057.85 47.95 1057.6 48.7 1057.4 49.5C1057.2 50.25 1057.1 51 1057.05 51.8C1057 52.2 1057 52.6 1057 53H1072V38C1069.05 38 1066.35 38.85 1064 40.3Z" fill="#428BC1"/>
<path d="M1068.5 38.5L1068.75 39.25H1069.5L1068.9 39.75L1069.1 40.5L1068.5 40.05L1067.9 40.5L1068.1 39.75L1067.5 39.25H1068.25L1068.5 38.5Z" fill="white"/>
<path d="M1070.5 41.5L1070.75 42.25H1071.5L1070.9 42.75L1071.1 43.5L1070.5 43.05L1069.9 43.5L1070.1 42.75L1069.5 42.25H1070.25L1070.5 41.5Z" fill="white"/>
<path d="M1066.5 41.5L1066.75 42.25H1067.5L1066.9 42.75L1067.1 43.5L1066.5 43.05L1065.9 43.5L1066.1 42.75L1065.5 42.25H1066.25L1066.5 41.5Z" fill="white"/>
<path d="M1068.5 44.5L1068.75 45.25H1069.5L1068.9 45.75L1069.1 46.5L1068.5 46.05L1067.9 46.5L1068.1 45.75L1067.5 45.25H1068.25L1068.5 44.5Z" fill="white"/>
<path d="M1064.5 44.5L1064.75 45.25H1065.5L1064.9 45.75L1065.1 46.5L1064.5 46.05L1063.9 46.5L1064.1 45.75L1063.5 45.25H1064.25L1064.5 44.5Z" fill="white"/>
<path d="M1060.5 44.5L1060.75 45.25H1061.5L1060.9 45.75L1061.1 46.5L1060.5 46.05L1059.9 46.5L1060.1 45.75L1059.5 45.25H1060.25L1060.5 44.5Z" fill="white"/>
<path d="M1070.5 47.5L1070.75 48.25H1071.5L1070.9 48.75L1071.1 49.5L1070.5 49.05L1069.9 49.5L1070.1 48.75L1069.5 48.25H1070.25L1070.5 47.5Z" fill="white"/>
<path d="M1066.5 47.5L1066.75 48.25H1067.5L1066.9 48.75L1067.1 49.5L1066.5 49.05L1065.9 49.5L1066.1 48.75L1065.5 48.25H1066.25L1066.5 47.5Z" fill="white"/>
<path d="M1062.5 47.5L1062.75 48.25H1063.5L1062.9 48.75L1063.1 49.5L1062.5 49.05L1061.9 49.5L1062.1 48.75L1061.5 48.25H1062.25L1062.5 47.5Z" fill="white"/>
<path d="M1068.5 50.5L1068.75 51.25H1069.5L1068.9 51.75L1069.1 52.5L1068.5 52.05L1067.9 52.5L1068.1 51.75L1067.5 51.25H1068.25L1068.5 50.5Z" fill="white"/>
<path d="M1064.5 50.5L1064.75 51.25H1065.5L1064.9 51.75L1065.1 52.5L1064.5 52.05L1063.9 52.5L1064.1 51.75L1063.5 51.25H1064.25L1064.5 50.5Z" fill="white"/>
<path d="M1060.5 50.5L1060.75 51.25H1061.5L1060.9 51.75L1061.1 52.5L1060.5 52.05L1059.9 52.5L1060.1 51.75L1059.5 51.25H1060.25L1060.5 50.5Z" fill="white"/>
<path d="M1061.9 43.5L1062.5 43.05L1063.1 43.5L1062.85 42.75L1063.45 42.25H1062.7L1062.5 41.5L1062.25 42.25H1061.55L1062.15 42.7L1061.9 43.5Z" fill="white"/>
<path d="M1057.9 49.5L1058.5 49.05L1059.1 49.5L1058.85 48.75L1059.45 48.25H1058.75L1058.5 47.5L1058.25 48.25H1057.75C1057.75 48.3 1057.7 48.35 1057.7 48.4L1058.1 48.7L1057.9 49.5Z" fill="white"/>
<path d="M1142.77 50.2734H1131.23C1130.88 50.2734 1130.69 50.6391 1130.9 50.8887L1136.67 57.5824C1136.84 57.774 1137.16 57.774 1137.33 57.5824L1143.1 50.8887C1143.31 50.6391 1143.12 50.2734 1142.77 50.2734Z" fill="white"/>
<rect x="1172.5" y="33.5" width="99" height="39" rx="5.5" stroke="white"/>
<path d="M1208.08 56.859V58H1202.39V47.969H1203.74V56.859H1208.08ZM1218.39 52.988C1218.39 53.7393 1218.27 54.43 1218.03 55.06C1217.79 55.6853 1217.45 56.2243 1217.02 56.677C1216.59 57.1297 1216.06 57.482 1215.45 57.734C1214.85 57.9813 1214.17 58.105 1213.44 58.105C1212.7 58.105 1212.03 57.9813 1211.42 57.734C1210.81 57.482 1210.29 57.1297 1209.86 56.677C1209.43 56.2243 1209.09 55.6853 1208.85 55.06C1208.61 54.43 1208.49 53.7393 1208.49 52.988C1208.49 52.2367 1208.61 51.5483 1208.85 50.923C1209.09 50.293 1209.43 49.7517 1209.86 49.299C1210.29 48.8417 1210.81 48.487 1211.42 48.235C1212.03 47.983 1212.7 47.857 1213.44 47.857C1214.17 47.857 1214.85 47.983 1215.45 48.235C1216.06 48.487 1216.59 48.8417 1217.02 49.299C1217.45 49.7517 1217.79 50.293 1218.03 50.923C1218.27 51.5483 1218.39 52.2367 1218.39 52.988ZM1216.99 52.988C1216.99 52.372 1216.91 51.819 1216.74 51.329C1216.57 50.839 1216.33 50.426 1216.03 50.09C1215.72 49.7493 1215.35 49.488 1214.91 49.306C1214.47 49.124 1213.98 49.033 1213.44 49.033C1212.9 49.033 1212.41 49.124 1211.97 49.306C1211.54 49.488 1211.16 49.7493 1210.85 50.09C1210.54 50.426 1210.3 50.839 1210.13 51.329C1209.96 51.819 1209.88 52.372 1209.88 52.988C1209.88 53.604 1209.96 54.157 1210.13 54.647C1210.3 55.1323 1210.54 55.5453 1210.85 55.886C1211.16 56.222 1211.54 56.481 1211.97 56.663C1212.41 56.8403 1212.9 56.929 1213.44 56.929C1213.98 56.929 1214.47 56.8403 1214.91 56.663C1215.35 56.481 1215.72 56.222 1216.03 55.886C1216.33 55.5453 1216.57 55.1323 1216.74 54.647C1216.91 54.157 1216.99 53.604 1216.99 52.988ZM1228.48 53.177V57.027C1227.97 57.391 1227.43 57.664 1226.86 57.846C1226.29 58.0233 1225.67 58.112 1224.98 58.112C1224.18 58.112 1223.45 57.9883 1222.8 57.741C1222.15 57.489 1221.6 57.139 1221.13 56.691C1220.68 56.2383 1220.32 55.697 1220.08 55.067C1219.83 54.437 1219.71 53.744 1219.71 52.988C1219.71 52.2227 1219.82 51.525 1220.06 50.895C1220.31 50.265 1220.65 49.726 1221.09 49.278C1221.54 48.8253 1222.07 48.4753 1222.71 48.228C1223.34 47.9807 1224.05 47.857 1224.84 47.857C1225.23 47.857 1225.6 47.8873 1225.94 47.948C1226.28 48.004 1226.6 48.088 1226.89 48.2C1227.18 48.3073 1227.45 48.4403 1227.69 48.599C1227.94 48.753 1228.17 48.928 1228.39 49.124L1228 49.74C1227.94 49.8333 1227.86 49.894 1227.76 49.922C1227.67 49.9453 1227.56 49.922 1227.45 49.852C1227.34 49.7867 1227.21 49.7073 1227.06 49.614C1226.92 49.5207 1226.74 49.432 1226.53 49.348C1226.33 49.2593 1226.08 49.1847 1225.8 49.124C1225.52 49.0633 1225.18 49.033 1224.79 49.033C1224.23 49.033 1223.72 49.1263 1223.26 49.313C1222.8 49.495 1222.41 49.7587 1222.09 50.104C1221.77 50.4447 1221.52 50.86 1221.35 51.35C1221.18 51.8353 1221.09 52.3813 1221.09 52.988C1221.09 53.618 1221.18 54.1827 1221.36 54.682C1221.54 55.1767 1221.8 55.599 1222.13 55.949C1222.46 56.2943 1222.87 56.558 1223.35 56.74C1223.82 56.922 1224.36 57.013 1224.95 57.013C1225.42 57.013 1225.83 56.9617 1226.19 56.859C1226.55 56.7517 1226.91 56.6047 1227.25 56.418V54.213H1225.69C1225.6 54.213 1225.53 54.1873 1225.47 54.136C1225.42 54.0847 1225.4 54.0217 1225.4 53.947V53.177H1228.48ZM1231.91 58H1230.56V47.969H1231.91V58ZM1242.61 47.969V58H1241.93C1241.82 58 1241.73 57.9813 1241.65 57.944C1241.58 57.9067 1241.51 57.8437 1241.44 57.755L1235.64 50.195C1235.65 50.3117 1235.66 50.426 1235.66 50.538C1235.67 50.65 1235.67 50.755 1235.67 50.853V58H1234.48V47.969H1235.18C1235.24 47.969 1235.29 47.9737 1235.33 47.983C1235.38 47.9877 1235.41 47.9993 1235.45 48.018C1235.48 48.032 1235.51 48.0553 1235.54 48.088C1235.58 48.116 1235.61 48.1533 1235.65 48.2L1241.45 55.753C1241.44 55.6317 1241.43 55.515 1241.42 55.403C1241.42 55.2863 1241.42 55.1767 1241.42 55.074V47.969H1242.61Z" fill="white"/>
</svg>
