<svg width="437" height="11" viewBox="0 0 437 11" fill="none" xmlns="http://www.w3.org/2000/svg">
<path d="M10.255 5.17301C10.255 5.91501 10.1313 6.60334 9.88401 7.23801C9.64134 7.86801 9.29601 8.41401 8.84801 8.87601C8.40001 9.33801 7.86101 9.69968 7.23101 9.96101C6.60101 10.2177 5.90101 10.346 5.13101 10.346C4.36567 10.346 3.66801 10.2177 3.03801 9.96101C2.40801 9.69968 1.86667 9.33801 1.41401 8.87601C0.966006 8.41401 0.618339 7.86801 0.371006 7.23801C0.123673 6.60334 6.12438e-06 5.91501 6.12438e-06 5.17301C6.12438e-06 4.43101 0.123673 3.74501 0.371006 3.11501C0.618339 2.48034 0.966006 1.93201 1.41401 1.47001C1.86667 1.00801 2.40801 0.648675 3.03801 0.392009C3.66801 0.130675 4.36567 8.70228e-06 5.13101 8.70228e-06C5.64434 8.70228e-06 6.12734 0.0606751 6.58001 0.182008C7.03267 0.298675 7.44801 0.466675 7.82601 0.686008C8.20401 0.900675 8.54234 1.16434 8.84101 1.47701C9.14434 1.78501 9.40101 2.13034 9.61101 2.51301C9.82101 2.89568 9.97967 3.31101 10.087 3.75901C10.199 4.20701 10.255 4.67834 10.255 5.17301ZM8.33001 5.17301C8.33001 4.61768 8.25534 4.12068 8.10601 3.68201C7.95667 3.23868 7.74434 2.86301 7.46901 2.55501C7.19367 2.24701 6.85767 2.01134 6.46101 1.84801C6.06901 1.68468 5.62567 1.60301 5.13101 1.60301C4.63634 1.60301 4.19067 1.68468 3.79401 1.84801C3.40201 2.01134 3.06601 2.24701 2.78601 2.55501C2.51067 2.86301 2.29834 3.23868 2.14901 3.68201C1.99967 4.12068 1.92501 4.61768 1.92501 5.17301C1.92501 5.72834 1.99967 6.22768 2.14901 6.67101C2.29834 7.10968 2.51067 7.48301 2.78601 7.79101C3.06601 8.09434 3.40201 8.32768 3.79401 8.49101C4.19067 8.65434 4.63634 8.73601 5.13101 8.73601C5.62567 8.73601 6.06901 8.65434 6.46101 8.49101C6.85767 8.32768 7.19367 8.09434 7.46901 7.79101C7.74434 7.48301 7.95667 7.10968 8.10601 6.67101C8.25534 6.22768 8.33001 5.72834 8.33001 5.17301ZM20.2535 0.112008L16.1655 10.234H14.4645L10.3765 0.112008H11.8885C12.0519 0.112008 12.1849 0.151675 12.2875 0.231009C12.3902 0.310342 12.4672 0.413008 12.5185 0.539008L14.9055 6.71301C14.9849 6.91368 15.0595 7.13534 15.1295 7.37801C15.2042 7.61601 15.2742 7.86568 15.3395 8.12701C15.3955 7.86568 15.4562 7.61601 15.5215 7.37801C15.5869 7.13534 15.6592 6.91368 15.7385 6.71301L18.1115 0.539008C18.1489 0.431675 18.2212 0.333675 18.3285 0.245008C18.4405 0.156342 18.5759 0.112008 18.7345 0.112008H20.2535ZM23.1912 1.61001V4.41701H26.7332V5.86601H23.1912V8.72901H27.6852V10.234H21.3012V0.112008H27.6852V1.61001H23.1912ZM32.413 4.92801C32.7676 4.92801 33.0756 4.88368 33.337 4.79501C33.603 4.70634 33.82 4.58501 33.988 4.43101C34.1606 4.27234 34.289 4.08568 34.373 3.87101C34.457 3.65634 34.499 3.42068 34.499 3.16401C34.499 2.65068 34.3286 2.25634 33.988 1.98101C33.652 1.70568 33.1363 1.56801 32.441 1.56801H31.237V4.92801H32.413ZM37.257 10.234H35.556C35.234 10.234 35.0006 10.108 34.856 9.85601L32.728 6.61501C32.6486 6.49368 32.56 6.40734 32.462 6.35601C32.3686 6.30468 32.2286 6.27901 32.042 6.27901H31.237V10.234H29.354V0.112008H32.441C33.127 0.112008 33.715 0.184341 34.205 0.329008C34.6996 0.469008 35.1033 0.667342 35.416 0.924008C35.7333 1.18067 35.9666 1.48867 36.116 1.84801C36.2653 2.20267 36.34 2.59467 36.34 3.02401C36.34 3.36468 36.2886 3.68668 36.186 3.99001C36.088 4.29334 35.9433 4.56868 35.752 4.81601C35.5653 5.06334 35.332 5.28034 35.052 5.46701C34.7766 5.65368 34.4616 5.80068 34.107 5.90801C34.2283 5.97801 34.3403 6.06201 34.443 6.16001C34.5456 6.25334 34.639 6.36534 34.723 6.49601L37.257 10.234ZM46.7086 0.112008L42.6206 10.234H40.9196L36.8316 0.112008H38.3436C38.5069 0.112008 38.6399 0.151675 38.7426 0.231009C38.8453 0.310342 38.9223 0.413008 38.9736 0.539008L41.3606 6.71301C41.4399 6.91368 41.5146 7.13534 41.5846 7.37801C41.6593 7.61601 41.7293 7.86568 41.7946 8.12701C41.8506 7.86568 41.9113 7.61601 41.9766 7.37801C42.0419 7.13534 42.1143 6.91368 42.1936 6.71301L44.5666 0.539008C44.6039 0.431675 44.6763 0.333675 44.7836 0.245008C44.8956 0.156342 45.0309 0.112008 45.1896 0.112008H46.7086ZM49.6463 10.234H47.7563V0.112008H49.6463V10.234ZM53.8026 1.61001V4.41701H57.3446V5.86601H53.8026V8.72901H58.2966V10.234H51.9126V0.112008H58.2966V1.61001H53.8026ZM73.4333 0.112008L70.2903 10.234H68.5893L66.3773 3.31801C66.3166 3.15001 66.2606 2.94468 66.2093 2.70201C66.1813 2.81868 66.1533 2.92834 66.1253 3.03101C66.0973 3.13367 66.067 3.22934 66.0343 3.31801L63.8013 10.234H62.0933L58.9573 0.112008H60.5323C60.6956 0.112008 60.831 0.151675 60.9383 0.231009C61.0503 0.305675 61.125 0.408341 61.1623 0.539008L62.8843 6.59401C62.9216 6.74334 62.9566 6.90668 62.9893 7.08401C63.0266 7.25668 63.064 7.43868 63.1013 7.63001C63.1386 7.43401 63.1783 7.24968 63.2203 7.07701C63.267 6.90434 63.316 6.74334 63.3673 6.59401L65.3553 0.539008C65.3926 0.431675 65.465 0.333675 65.5723 0.245008C65.6843 0.156342 65.8196 0.112008 65.9783 0.112008H66.5313C66.6946 0.112008 66.8276 0.151675 66.9303 0.231009C67.033 0.310342 67.11 0.413008 67.1613 0.539008L69.1423 6.59401C69.2403 6.88334 69.329 7.21701 69.4083 7.59501C69.469 7.22634 69.5366 6.89268 69.6113 6.59401L71.3333 0.539008C71.3613 0.422341 71.4313 0.322008 71.5433 0.238008C71.66 0.154008 71.7976 0.112008 71.9563 0.112008H73.4333ZM97.6804 1.30901V4.81601H101.803V5.92201H97.6804V10.234H96.3224V0.203008H102.503V1.30901H97.6804ZM110.426 9.12801L110.419 10.234H104.238V0.203008H110.419V1.30901H105.596V4.64101H109.502V5.70501H105.596V9.12801H110.426ZM117.646 6.51001L116.071 2.42901C116.024 2.30768 115.975 2.16768 115.924 2.00901C115.872 1.84568 115.823 1.67301 115.777 1.49101C115.679 1.86901 115.578 2.18401 115.476 2.43601L113.901 6.51001H117.646ZM120.474 10.234H119.424C119.302 10.234 119.204 10.2037 119.13 10.143C119.055 10.0823 118.999 10.0053 118.962 9.91201L118.024 7.49001H113.523L112.585 9.91201C112.557 9.99601 112.503 10.0707 112.424 10.136C112.344 10.2013 112.246 10.234 112.13 10.234H111.08L115.091 0.203008H116.463L120.474 10.234ZM127.592 1.34401H124.344V10.234H122.993V1.34401H119.738V0.203008H127.592V1.34401ZM132.951 9.15601C133.367 9.15601 133.738 9.08601 134.064 8.94601C134.391 8.80601 134.666 8.61001 134.89 8.35801C135.119 8.10601 135.292 7.80501 135.408 7.45501C135.53 7.10501 135.59 6.72001 135.59 6.30001V0.203008H136.941V6.30001C136.941 6.87868 136.848 7.41534 136.661 7.91001C136.479 8.40468 136.216 8.83401 135.87 9.19801C135.53 9.55734 135.112 9.83968 134.617 10.045C134.123 10.2503 133.567 10.353 132.951 10.353C132.335 10.353 131.78 10.2503 131.285 10.045C130.791 9.83968 130.371 9.55734 130.025 9.19801C129.68 8.83401 129.414 8.40468 129.227 7.91001C129.045 7.41534 128.954 6.87868 128.954 6.30001V0.203008H130.305V6.29301C130.305 6.71301 130.364 7.09801 130.48 7.44801C130.602 7.79801 130.774 8.09901 130.998 8.35101C131.227 8.60301 131.505 8.80134 131.831 8.94601C132.163 9.08601 132.536 9.15601 132.951 9.15601ZM142.154 5.06101C142.546 5.06101 142.891 5.01434 143.19 4.92101C143.493 4.82301 143.745 4.68768 143.946 4.51501C144.151 4.33768 144.305 4.12768 144.408 3.88501C144.511 3.64234 144.562 3.37401 144.562 3.08001C144.562 2.48267 144.366 2.03234 143.974 1.72901C143.582 1.42567 142.994 1.27401 142.21 1.27401H140.726V5.06101H142.154ZM146.788 10.234H145.584C145.337 10.234 145.155 10.1383 145.038 9.94701L142.434 6.36301C142.355 6.25101 142.268 6.17168 142.175 6.12501C142.086 6.07368 141.946 6.04801 141.755 6.04801H140.726V10.234H139.375V0.203008H142.21C142.845 0.203008 143.393 0.268342 143.855 0.399008C144.317 0.525008 144.697 0.709342 144.996 0.952008C145.299 1.19468 145.523 1.48868 145.668 1.83401C145.813 2.17467 145.885 2.55734 145.885 2.98201C145.885 3.33668 145.829 3.66801 145.717 3.97601C145.605 4.28401 145.442 4.56168 145.227 4.80901C145.017 5.05168 144.758 5.25934 144.45 5.43201C144.147 5.60468 143.801 5.73534 143.414 5.82401C143.587 5.92201 143.736 6.06434 143.862 6.25101L146.788 10.234ZM154.34 9.12801L154.333 10.234H148.152V0.203008H154.333V1.30901H149.51V4.64101H153.416V5.70501H149.51V9.12801H154.34ZM161.364 1.77101C161.322 1.84101 161.275 1.89468 161.224 1.93201C161.177 1.96468 161.119 1.98101 161.049 1.98101C160.969 1.98101 160.876 1.94134 160.769 1.86201C160.661 1.78267 160.526 1.69634 160.363 1.60301C160.204 1.50501 160.01 1.41634 159.782 1.33701C159.558 1.25767 159.285 1.21801 158.963 1.21801C158.659 1.21801 158.391 1.26001 158.158 1.34401C157.929 1.42334 157.735 1.53301 157.577 1.67301C157.423 1.81301 157.306 1.97867 157.227 2.17001C157.147 2.35667 157.108 2.55967 157.108 2.77901C157.108 3.05901 157.175 3.29234 157.311 3.47901C157.451 3.66101 157.633 3.81734 157.857 3.94801C158.085 4.07868 158.342 4.19301 158.627 4.29101C158.916 4.38434 159.21 4.48234 159.509 4.58501C159.812 4.68768 160.106 4.80434 160.391 4.93501C160.68 5.06101 160.937 5.22201 161.161 5.41801C161.389 5.61401 161.571 5.85434 161.707 6.13901C161.847 6.42368 161.917 6.77368 161.917 7.18901C161.917 7.62768 161.842 8.04068 161.693 8.42801C161.543 8.81068 161.324 9.14434 161.035 9.42901C160.75 9.71368 160.398 9.93768 159.978 10.101C159.562 10.2643 159.089 10.346 158.557 10.346C157.903 10.346 157.311 10.2293 156.779 9.99601C156.247 9.75801 155.792 9.43834 155.414 9.03701L155.806 8.39301C155.843 8.34168 155.887 8.29968 155.939 8.26701C155.995 8.22968 156.055 8.21101 156.121 8.21101C156.181 8.21101 156.249 8.23668 156.324 8.28801C156.403 8.33468 156.492 8.39534 156.59 8.47001C156.688 8.54468 156.8 8.62634 156.926 8.71501C157.052 8.80368 157.194 8.88534 157.353 8.96001C157.516 9.03468 157.7 9.09768 157.906 9.14901C158.111 9.19568 158.342 9.21901 158.599 9.21901C158.921 9.21901 159.208 9.17468 159.46 9.08601C159.712 8.99734 159.924 8.87368 160.097 8.71501C160.274 8.55168 160.409 8.35801 160.503 8.13401C160.596 7.91001 160.643 7.66034 160.643 7.38501C160.643 7.08168 160.573 6.83434 160.433 6.64301C160.297 6.44701 160.118 6.28368 159.894 6.15301C159.67 6.02234 159.413 5.91268 159.124 5.82401C158.834 5.73068 158.54 5.63734 158.242 5.54401C157.943 5.44601 157.649 5.33401 157.36 5.20801C157.07 5.08201 156.814 4.91868 156.59 4.71801C156.366 4.51734 156.184 4.26768 156.044 3.96901C155.908 3.66568 155.841 3.29234 155.841 2.84901C155.841 2.49434 155.908 2.15134 156.044 1.82001C156.184 1.48868 156.384 1.19468 156.646 0.938008C156.912 0.681342 157.236 0.476009 157.619 0.322009C158.006 0.168008 158.449 0.0910079 158.949 0.0910079C159.509 0.0910079 160.017 0.179675 160.475 0.357009C160.937 0.534342 161.343 0.791008 161.693 1.12701L161.364 1.77101ZM191.685 1.34401H188.437V10.234H187.086V1.34401H183.831V0.203008H191.685V1.34401ZM199.362 9.12801L199.355 10.234H193.174V0.203008H199.355V1.30901H194.532V4.64101H198.438V5.70501H194.532V9.12801H199.362ZM208.077 8.16201C208.152 8.16201 208.217 8.19234 208.273 8.25301L208.812 8.83401C208.402 9.31001 207.902 9.68101 207.314 9.94701C206.731 10.213 206.024 10.346 205.193 10.346C204.475 10.346 203.821 10.2223 203.233 9.97501C202.645 9.72301 202.144 9.37301 201.728 8.92501C201.313 8.47234 200.991 7.93101 200.762 7.30101C200.534 6.67101 200.419 5.97801 200.419 5.22201C200.419 4.46601 200.538 3.77301 200.776 3.14301C201.014 2.51301 201.348 1.97168 201.777 1.51901C202.211 1.06634 202.729 0.716342 203.331 0.469008C203.933 0.217008 204.598 0.0910079 205.326 0.0910079C206.04 0.0910079 206.67 0.205341 207.216 0.434008C207.762 0.662675 208.243 0.973008 208.658 1.36501L208.21 1.98801C208.182 2.03467 208.145 2.07434 208.098 2.10701C208.056 2.13501 207.998 2.14901 207.923 2.14901C207.839 2.14901 207.737 2.10467 207.615 2.01601C207.494 1.92268 207.335 1.82001 207.139 1.70801C206.943 1.59601 206.698 1.49567 206.404 1.40701C206.11 1.31368 205.749 1.26701 205.319 1.26701C204.801 1.26701 204.328 1.35801 203.898 1.54001C203.469 1.71734 203.098 1.97634 202.785 2.31701C202.477 2.65767 202.237 3.07301 202.064 3.56301C201.892 4.05301 201.805 4.60601 201.805 5.22201C201.805 5.84734 201.894 6.40501 202.071 6.89501C202.253 7.38501 202.498 7.80034 202.806 8.14101C203.119 8.47701 203.485 8.73368 203.905 8.91101C204.33 9.08834 204.787 9.17701 205.277 9.17701C205.576 9.17701 205.844 9.16068 206.082 9.12801C206.325 9.09068 206.547 9.03468 206.747 8.96001C206.953 8.88534 207.142 8.79201 207.314 8.68001C207.492 8.56334 207.667 8.42568 207.839 8.26701C207.919 8.19701 207.998 8.16201 208.077 8.16201ZM218.514 0.203008V10.234H217.156V5.67001H211.745V10.234H210.387V0.203008H211.745V4.67601H217.156V0.203008H218.514ZM229.205 0.203008V10.234H228.526C228.419 10.234 228.328 10.2153 228.253 10.178C228.183 10.1407 228.113 10.0777 228.043 9.98901L222.24 2.42901C222.25 2.54568 222.257 2.66001 222.261 2.77201C222.266 2.88401 222.268 2.98901 222.268 3.08701V10.234H221.078V0.203008H221.778C221.839 0.203008 221.89 0.207675 221.932 0.217008C221.974 0.221675 222.012 0.233342 222.044 0.252008C222.077 0.266008 222.11 0.289342 222.142 0.322009C222.175 0.350008 222.21 0.387341 222.247 0.434008L228.05 7.98701C228.041 7.86568 228.032 7.74901 228.022 7.63701C228.018 7.52034 228.015 7.41068 228.015 7.30801V0.203008H229.205ZM241.038 5.22201C241.038 5.97334 240.919 6.66401 240.681 7.29401C240.443 7.91934 240.107 8.45834 239.673 8.91101C239.239 9.36368 238.716 9.71601 238.105 9.96801C237.498 10.2153 236.826 10.339 236.089 10.339C235.351 10.339 234.679 10.2153 234.073 9.96801C233.466 9.71601 232.946 9.36368 232.512 8.91101C232.078 8.45834 231.742 7.91934 231.504 7.29401C231.266 6.66401 231.147 5.97334 231.147 5.22201C231.147 4.47068 231.266 3.78234 231.504 3.15701C231.742 2.52701 232.078 1.98568 232.512 1.53301C232.946 1.07568 233.466 0.721008 234.073 0.469008C234.679 0.217008 235.351 0.0910079 236.089 0.0910079C236.826 0.0910079 237.498 0.217008 238.105 0.469008C238.716 0.721008 239.239 1.07568 239.673 1.53301C240.107 1.98568 240.443 2.52701 240.681 3.15701C240.919 3.78234 241.038 4.47068 241.038 5.22201ZM239.645 5.22201C239.645 4.60601 239.561 4.05301 239.393 3.56301C239.225 3.07301 238.987 2.66001 238.679 2.32401C238.371 1.98334 237.997 1.72201 237.559 1.54001C237.12 1.35801 236.63 1.26701 236.089 1.26701C235.552 1.26701 235.064 1.35801 234.626 1.54001C234.187 1.72201 233.811 1.98334 233.499 2.32401C233.191 2.66001 232.953 3.07301 232.785 3.56301C232.617 4.05301 232.533 4.60601 232.533 5.22201C232.533 5.83801 232.617 6.39101 232.785 6.88101C232.953 7.36634 233.191 7.77934 233.499 8.12001C233.811 8.45601 234.187 8.71501 234.626 8.89701C235.064 9.07434 235.552 9.16301 236.089 9.16301C236.63 9.16301 237.12 9.07434 237.559 8.89701C237.997 8.71501 238.371 8.45601 238.679 8.12001C238.987 7.77934 239.225 7.36634 239.393 6.88101C239.561 6.39101 239.645 5.83801 239.645 5.22201ZM248.672 9.09301V10.234H242.981V0.203008H244.332V9.09301H248.672ZM258.975 5.22201C258.975 5.97334 258.856 6.66401 258.618 7.29401C258.38 7.91934 258.044 8.45834 257.61 8.91101C257.176 9.36368 256.654 9.71601 256.042 9.96801C255.436 10.2153 254.764 10.339 254.026 10.339C253.289 10.339 252.617 10.2153 252.01 9.96801C251.404 9.71601 250.883 9.36368 250.449 8.91101C250.015 8.45834 249.679 7.91934 249.441 7.29401C249.203 6.66401 249.084 5.97334 249.084 5.22201C249.084 4.47068 249.203 3.78234 249.441 3.15701C249.679 2.52701 250.015 1.98568 250.449 1.53301C250.883 1.07568 251.404 0.721008 252.01 0.469008C252.617 0.217008 253.289 0.0910079 254.026 0.0910079C254.764 0.0910079 255.436 0.217008 256.042 0.469008C256.654 0.721008 257.176 1.07568 257.61 1.53301C258.044 1.98568 258.38 2.52701 258.618 3.15701C258.856 3.78234 258.975 4.47068 258.975 5.22201ZM257.582 5.22201C257.582 4.60601 257.498 4.05301 257.33 3.56301C257.162 3.07301 256.924 2.66001 256.616 2.32401C256.308 1.98334 255.935 1.72201 255.496 1.54001C255.058 1.35801 254.568 1.26701 254.026 1.26701C253.49 1.26701 253.002 1.35801 252.563 1.54001C252.125 1.72201 251.749 1.98334 251.436 2.32401C251.128 2.66001 250.89 3.07301 250.722 3.56301C250.554 4.05301 250.47 4.60601 250.47 5.22201C250.47 5.83801 250.554 6.39101 250.722 6.88101C250.89 7.36634 251.128 7.77934 251.436 8.12001C251.749 8.45601 252.125 8.71501 252.563 8.89701C253.002 9.07434 253.49 9.16301 254.026 9.16301C254.568 9.16301 255.058 9.07434 255.496 8.89701C255.935 8.71501 256.308 8.45601 256.616 8.12001C256.924 7.77934 257.162 7.36634 257.33 6.88101C257.498 6.39101 257.582 5.83801 257.582 5.22201ZM269.066 5.41101V9.26101C268.562 9.62501 268.023 9.89801 267.449 10.08C266.88 10.2573 266.254 10.346 265.573 10.346C264.766 10.346 264.038 10.2223 263.389 9.97501C262.74 9.72301 262.185 9.37301 261.723 8.92501C261.266 8.47234 260.913 7.93101 260.666 7.30101C260.419 6.67101 260.295 5.97801 260.295 5.22201C260.295 4.45668 260.414 3.75901 260.652 3.12901C260.895 2.49901 261.238 1.96001 261.681 1.51201C262.124 1.05934 262.663 0.709342 263.298 0.462009C263.933 0.214675 264.642 0.0910079 265.426 0.0910079C265.823 0.0910079 266.191 0.121341 266.532 0.182008C266.873 0.238008 267.188 0.322008 267.477 0.434008C267.766 0.541341 268.035 0.674342 268.282 0.833008C268.529 0.987008 268.76 1.16201 268.975 1.35801L268.59 1.97401C268.529 2.06734 268.45 2.12801 268.352 2.15601C268.259 2.17934 268.154 2.15601 268.037 2.08601C267.925 2.02067 267.797 1.94134 267.652 1.84801C267.507 1.75468 267.33 1.66601 267.12 1.58201C266.915 1.49334 266.67 1.41867 266.385 1.35801C266.105 1.29734 265.771 1.26701 265.384 1.26701C264.819 1.26701 264.308 1.36034 263.851 1.54701C263.394 1.72901 263.004 1.99268 262.682 2.33801C262.36 2.67868 262.113 3.09401 261.94 3.58401C261.767 4.06934 261.681 4.61534 261.681 5.22201C261.681 5.85201 261.77 6.41668 261.947 6.91601C262.129 7.41068 262.386 7.83301 262.717 8.18301C263.053 8.52834 263.459 8.79201 263.935 8.97401C264.411 9.15601 264.945 9.24701 265.538 9.24701C266.005 9.24701 266.418 9.19568 266.777 9.09301C267.141 8.98568 267.496 8.83868 267.841 8.65201V6.44701H266.28C266.191 6.44701 266.119 6.42134 266.063 6.37001C266.012 6.31868 265.986 6.25568 265.986 6.18101V5.41101H269.066ZM274.678 6.23701V10.234H273.32V6.23701L269.645 0.203008H270.835C270.957 0.203008 271.052 0.233342 271.122 0.294008C271.192 0.350008 271.253 0.424675 271.304 0.518009L273.6 4.41701C273.684 4.58034 273.761 4.73434 273.831 4.87901C273.901 5.01901 273.962 5.16134 274.013 5.30601C274.065 5.16134 274.123 5.01901 274.188 4.87901C274.254 4.73434 274.326 4.58034 274.405 4.41701L276.694 0.518009C276.736 0.438675 276.795 0.366342 276.869 0.301009C276.944 0.235675 277.04 0.203008 277.156 0.203008H278.353L274.678 6.23701ZM307.636 8.16201C307.711 8.16201 307.776 8.19234 307.832 8.25301L308.371 8.83401C307.96 9.31001 307.461 9.68101 306.873 9.94701C306.29 10.213 305.583 10.346 304.752 10.346C304.033 10.346 303.38 10.2223 302.792 9.97501C302.204 9.72301 301.702 9.37301 301.287 8.92501C300.872 8.47234 300.55 7.93101 300.321 7.30101C300.092 6.67101 299.978 5.97801 299.978 5.22201C299.978 4.46601 300.097 3.77301 300.335 3.14301C300.573 2.51301 300.907 1.97168 301.336 1.51901C301.77 1.06634 302.288 0.716342 302.89 0.469008C303.492 0.217008 304.157 0.0910079 304.885 0.0910079C305.599 0.0910079 306.229 0.205341 306.775 0.434008C307.321 0.662675 307.802 0.973008 308.217 1.36501L307.769 1.98801C307.741 2.03467 307.704 2.07434 307.657 2.10701C307.615 2.13501 307.557 2.14901 307.482 2.14901C307.398 2.14901 307.295 2.10467 307.174 2.01601C307.053 1.92268 306.894 1.82001 306.698 1.70801C306.502 1.59601 306.257 1.49567 305.963 1.40701C305.669 1.31368 305.307 1.26701 304.878 1.26701C304.36 1.26701 303.886 1.35801 303.457 1.54001C303.028 1.71734 302.657 1.97634 302.344 2.31701C302.036 2.65767 301.796 3.07301 301.623 3.56301C301.45 4.05301 301.364 4.60601 301.364 5.22201C301.364 5.84734 301.453 6.40501 301.63 6.89501C301.812 7.38501 302.057 7.80034 302.365 8.14101C302.678 8.47701 303.044 8.73368 303.464 8.91101C303.889 9.08834 304.346 9.17701 304.836 9.17701C305.135 9.17701 305.403 9.16068 305.641 9.12801C305.884 9.09068 306.105 9.03468 306.306 8.96001C306.511 8.88534 306.7 8.79201 306.873 8.68001C307.05 8.56334 307.225 8.42568 307.398 8.26701C307.477 8.19701 307.557 8.16201 307.636 8.16201ZM319.022 5.22201C319.022 5.97334 318.903 6.66401 318.665 7.29401C318.427 7.91934 318.091 8.45834 317.657 8.91101C317.223 9.36368 316.7 9.71601 316.089 9.96801C315.482 10.2153 314.81 10.339 314.073 10.339C313.336 10.339 312.664 10.2153 312.057 9.96801C311.45 9.71601 310.93 9.36368 310.496 8.91101C310.062 8.45834 309.726 7.91934 309.488 7.29401C309.25 6.66401 309.131 5.97334 309.131 5.22201C309.131 4.47068 309.25 3.78234 309.488 3.15701C309.726 2.52701 310.062 1.98568 310.496 1.53301C310.93 1.07568 311.45 0.721008 312.057 0.469008C312.664 0.217008 313.336 0.0910079 314.073 0.0910079C314.81 0.0910079 315.482 0.217008 316.089 0.469008C316.7 0.721008 317.223 1.07568 317.657 1.53301C318.091 1.98568 318.427 2.52701 318.665 3.15701C318.903 3.78234 319.022 4.47068 319.022 5.22201ZM317.629 5.22201C317.629 4.60601 317.545 4.05301 317.377 3.56301C317.209 3.07301 316.971 2.66001 316.663 2.32401C316.355 1.98334 315.982 1.72201 315.543 1.54001C315.104 1.35801 314.614 1.26701 314.073 1.26701C313.536 1.26701 313.049 1.35801 312.61 1.54001C312.171 1.72201 311.796 1.98334 311.483 2.32401C311.175 2.66001 310.937 3.07301 310.769 3.56301C310.601 4.05301 310.517 4.60601 310.517 5.22201C310.517 5.83801 310.601 6.39101 310.769 6.88101C310.937 7.36634 311.175 7.77934 311.483 8.12001C311.796 8.45601 312.171 8.71501 312.61 8.89701C313.049 9.07434 313.536 9.16301 314.073 9.16301C314.614 9.16301 315.104 9.07434 315.543 8.89701C315.982 8.71501 316.355 8.45601 316.663 8.12001C316.971 7.77934 317.209 7.36634 317.377 6.88101C317.545 6.39101 317.629 5.83801 317.629 5.22201ZM329.092 0.203008V10.234H328.413C328.306 10.234 328.215 10.2153 328.14 10.178C328.07 10.1407 328 10.0777 327.93 9.98901L322.127 2.42901C322.136 2.54568 322.143 2.66001 322.148 2.77201C322.153 2.88401 322.155 2.98901 322.155 3.08701V10.234H320.965V0.203008H321.665C321.726 0.203008 321.777 0.207675 321.819 0.217008C321.861 0.221675 321.898 0.233342 321.931 0.252008C321.964 0.266008 321.996 0.289342 322.029 0.322009C322.062 0.350008 322.097 0.387341 322.134 0.434008L327.937 7.98701C327.928 7.86568 327.918 7.74901 327.909 7.63701C327.904 7.52034 327.902 7.41068 327.902 7.30801V0.203008H329.092ZM338.439 1.34401H335.191V10.234H333.84V1.34401H330.585V0.203008H338.439V1.34401ZM344.271 6.51001L342.696 2.42901C342.649 2.30768 342.6 2.16768 342.549 2.00901C342.497 1.84568 342.448 1.67301 342.402 1.49101C342.304 1.86901 342.203 2.18401 342.101 2.43601L340.526 6.51001H344.271ZM347.099 10.234H346.049C345.927 10.234 345.829 10.2037 345.755 10.143C345.68 10.0823 345.624 10.0053 345.587 9.91201L344.649 7.49001H340.148L339.21 9.91201C339.182 9.99601 339.128 10.0707 339.049 10.136C338.969 10.2013 338.871 10.234 338.755 10.234H337.705L341.716 0.203008H343.088L347.099 10.234ZM355.2 8.16201C355.275 8.16201 355.34 8.19234 355.396 8.25301L355.935 8.83401C355.525 9.31001 355.025 9.68101 354.437 9.94701C353.854 10.213 353.147 10.346 352.316 10.346C351.598 10.346 350.944 10.2223 350.356 9.97501C349.768 9.72301 349.267 9.37301 348.851 8.92501C348.436 8.47234 348.114 7.93101 347.885 7.30101C347.657 6.67101 347.542 5.97801 347.542 5.22201C347.542 4.46601 347.661 3.77301 347.899 3.14301C348.137 2.51301 348.471 1.97168 348.9 1.51901C349.334 1.06634 349.852 0.716342 350.454 0.469008C351.056 0.217008 351.721 0.0910079 352.449 0.0910079C353.163 0.0910079 353.793 0.205341 354.339 0.434008C354.885 0.662675 355.366 0.973008 355.781 1.36501L355.333 1.98801C355.305 2.03467 355.268 2.07434 355.221 2.10701C355.179 2.13501 355.121 2.14901 355.046 2.14901C354.962 2.14901 354.86 2.10467 354.738 2.01601C354.617 1.92268 354.458 1.82001 354.262 1.70801C354.066 1.59601 353.821 1.49567 353.527 1.40701C353.233 1.31368 352.872 1.26701 352.442 1.26701C351.924 1.26701 351.451 1.35801 351.021 1.54001C350.592 1.71734 350.221 1.97634 349.908 2.31701C349.6 2.65767 349.36 3.07301 349.187 3.56301C349.015 4.05301 348.928 4.60601 348.928 5.22201C348.928 5.84734 349.017 6.40501 349.194 6.89501C349.376 7.38501 349.621 7.80034 349.929 8.14101C350.242 8.47701 350.608 8.73368 351.028 8.91101C351.453 9.08834 351.91 9.17701 352.4 9.17701C352.699 9.17701 352.967 9.16068 353.205 9.12801C353.448 9.09068 353.67 9.03468 353.87 8.96001C354.076 8.88534 354.265 8.79201 354.437 8.68001C354.615 8.56334 354.79 8.42568 354.962 8.26701C355.042 8.19701 355.121 8.16201 355.2 8.16201ZM364.293 1.34401H361.045V10.234H359.694V1.34401H356.439V0.203008H364.293V1.34401ZM388.399 1.77101C388.357 1.84101 388.31 1.89468 388.259 1.93201C388.212 1.96468 388.154 1.98101 388.084 1.98101C388.004 1.98101 387.911 1.94134 387.804 1.86201C387.696 1.78267 387.561 1.69634 387.398 1.60301C387.239 1.50501 387.045 1.41634 386.817 1.33701C386.593 1.25767 386.32 1.21801 385.998 1.21801C385.694 1.21801 385.426 1.26001 385.193 1.34401C384.964 1.42334 384.77 1.53301 384.612 1.67301C384.458 1.81301 384.341 1.97867 384.262 2.17001C384.182 2.35667 384.143 2.55967 384.143 2.77901C384.143 3.05901 384.21 3.29234 384.346 3.47901C384.486 3.66101 384.668 3.81734 384.892 3.94801C385.12 4.07868 385.377 4.19301 385.662 4.29101C385.951 4.38434 386.245 4.48234 386.544 4.58501C386.847 4.68768 387.141 4.80434 387.426 4.93501C387.715 5.06101 387.972 5.22201 388.196 5.41801C388.424 5.61401 388.606 5.85434 388.742 6.13901C388.882 6.42368 388.952 6.77368 388.952 7.18901C388.952 7.62768 388.877 8.04068 388.728 8.42801C388.578 8.81068 388.359 9.14434 388.07 9.42901C387.785 9.71368 387.433 9.93768 387.013 10.101C386.597 10.2643 386.124 10.346 385.592 10.346C384.938 10.346 384.346 10.2293 383.814 9.99601C383.282 9.75801 382.827 9.43834 382.449 9.03701L382.841 8.39301C382.878 8.34168 382.922 8.29968 382.974 8.26701C383.03 8.22968 383.09 8.21101 383.156 8.21101C383.216 8.21101 383.284 8.23668 383.359 8.28801C383.438 8.33468 383.527 8.39534 383.625 8.47001C383.723 8.54468 383.835 8.62634 383.961 8.71501C384.087 8.80368 384.229 8.88534 384.388 8.96001C384.551 9.03468 384.735 9.09768 384.941 9.14901C385.146 9.19568 385.377 9.21901 385.634 9.21901C385.956 9.21901 386.243 9.17468 386.495 9.08601C386.747 8.99734 386.959 8.87368 387.132 8.71501C387.309 8.55168 387.444 8.35801 387.538 8.13401C387.631 7.91001 387.678 7.66034 387.678 7.38501C387.678 7.08168 387.608 6.83434 387.468 6.64301C387.332 6.44701 387.153 6.28368 386.929 6.15301C386.705 6.02234 386.448 5.91268 386.159 5.82401C385.869 5.73068 385.575 5.63734 385.277 5.54401C384.978 5.44601 384.684 5.33401 384.395 5.20801C384.105 5.08201 383.849 4.91868 383.625 4.71801C383.401 4.51734 383.219 4.26768 383.079 3.96901C382.943 3.66568 382.876 3.29234 382.876 2.84901C382.876 2.49434 382.943 2.15134 383.079 1.82001C383.219 1.48868 383.419 1.19468 383.681 0.938008C383.947 0.681342 384.271 0.476009 384.654 0.322009C385.041 0.168008 385.484 0.0910079 385.984 0.0910079C386.544 0.0910079 387.052 0.179675 387.51 0.357009C387.972 0.534342 388.378 0.791008 388.728 1.12701L388.399 1.77101ZM392.227 10.234H390.869V0.203008H392.227V10.234ZM402.941 5.41101V9.26101C402.437 9.62501 401.898 9.89801 401.324 10.08C400.755 10.2573 400.129 10.346 399.448 10.346C398.641 10.346 397.913 10.2223 397.264 9.97501C396.615 9.72301 396.06 9.37301 395.598 8.92501C395.141 8.47234 394.788 7.93101 394.541 7.30101C394.294 6.67101 394.17 5.97801 394.17 5.22201C394.17 4.45668 394.289 3.75901 394.527 3.12901C394.77 2.49901 395.113 1.96001 395.556 1.51201C395.999 1.05934 396.538 0.709342 397.173 0.462009C397.808 0.214675 398.517 0.0910079 399.301 0.0910079C399.698 0.0910079 400.066 0.121341 400.407 0.182008C400.748 0.238008 401.063 0.322008 401.352 0.434008C401.641 0.541341 401.91 0.674342 402.157 0.833008C402.404 0.987008 402.635 1.16201 402.85 1.35801L402.465 1.97401C402.404 2.06734 402.325 2.12801 402.227 2.15601C402.134 2.17934 402.029 2.15601 401.912 2.08601C401.8 2.02067 401.672 1.94134 401.527 1.84801C401.382 1.75468 401.205 1.66601 400.995 1.58201C400.79 1.49334 400.545 1.41867 400.26 1.35801C399.98 1.29734 399.646 1.26701 399.259 1.26701C398.694 1.26701 398.183 1.36034 397.726 1.54701C397.269 1.72901 396.879 1.99268 396.557 2.33801C396.235 2.67868 395.988 3.09401 395.815 3.58401C395.642 4.06934 395.556 4.61534 395.556 5.22201C395.556 5.85201 395.645 6.41668 395.822 6.91601C396.004 7.41068 396.261 7.83301 396.592 8.18301C396.928 8.52834 397.334 8.79201 397.81 8.97401C398.286 9.15601 398.82 9.24701 399.413 9.24701C399.88 9.24701 400.293 9.19568 400.652 9.09301C401.016 8.98568 401.371 8.83868 401.716 8.65201V6.44701H400.155C400.066 6.44701 399.994 6.42134 399.938 6.37001C399.887 6.31868 399.861 6.25568 399.861 6.18101V5.41101H402.941ZM413.147 0.203008V10.234H412.468C412.36 10.234 412.269 10.2153 412.195 10.178C412.125 10.1407 412.055 10.0777 411.985 9.98901L406.182 2.42901C406.191 2.54568 406.198 2.66001 406.203 2.77201C406.207 2.88401 406.21 2.98901 406.21 3.08701V10.234H405.02V0.203008H405.72C405.78 0.203008 405.832 0.207675 405.874 0.217008C405.916 0.221675 405.953 0.233342 405.986 0.252008C406.018 0.266008 406.051 0.289342 406.084 0.322009C406.116 0.350008 406.151 0.387341 406.189 0.434008L411.992 7.98701C411.982 7.86568 411.973 7.74901 411.964 7.63701C411.959 7.52034 411.957 7.41068 411.957 7.30801V0.203008H413.147ZM423.164 9.15601C423.579 9.15601 423.95 9.08601 424.277 8.94601C424.604 8.80601 424.879 8.61001 425.103 8.35801C425.332 8.10601 425.504 7.80501 425.621 7.45501C425.742 7.10501 425.803 6.72001 425.803 6.30001V0.203008H427.154V6.30001C427.154 6.87868 427.061 7.41534 426.874 7.91001C426.692 8.40468 426.428 8.83401 426.083 9.19801C425.742 9.55734 425.325 9.83968 424.83 10.045C424.335 10.2503 423.78 10.353 423.164 10.353C422.548 10.353 421.993 10.2503 421.498 10.045C421.003 9.83968 420.583 9.55734 420.238 9.19801C419.893 8.83401 419.627 8.40468 419.44 7.91001C419.258 7.41534 419.167 6.87868 419.167 6.30001V0.203008H420.518V6.29301C420.518 6.71301 420.576 7.09801 420.693 7.44801C420.814 7.79801 420.987 8.09901 421.211 8.35101C421.44 8.60301 421.717 8.80134 422.044 8.94601C422.375 9.08601 422.749 9.15601 423.164 9.15601ZM432.549 5.40401C432.936 5.40401 433.277 5.35268 433.571 5.25001C433.87 5.14734 434.119 5.00501 434.32 4.82301C434.525 4.63634 434.679 4.41468 434.782 4.15801C434.885 3.90134 434.936 3.61901 434.936 3.31101C434.936 2.67168 434.738 2.17234 434.341 1.81301C433.949 1.45367 433.352 1.27401 432.549 1.27401H430.939V5.40401H432.549ZM432.549 0.203008C433.184 0.203008 433.734 0.277675 434.201 0.427009C434.672 0.571675 435.062 0.779341 435.37 1.05001C435.678 1.32068 435.907 1.64734 436.056 2.03001C436.21 2.41268 436.287 2.83968 436.287 3.31101C436.287 3.77768 436.205 4.20468 436.042 4.59201C435.879 4.97934 435.638 5.31301 435.321 5.59301C435.008 5.87301 434.619 6.09234 434.152 6.25101C433.69 6.40501 433.156 6.48201 432.549 6.48201H430.939V10.234H429.588V0.203008H432.549Z" fill="white"/>
</svg>
